<svg width="619" height="222" viewBox="0 0 619 222" fill="none" xmlns="http://www.w3.org/2000/svg">
<path d="M0.75959 103.198C0.402638 95.4126 0.224162 91.5199 2.55784 89.0227C4.89153 86.5255 8.78614 86.4416 16.5754 86.2737L61.8049 85.299L135.591 88.8774C136.173 88.9056 136.463 88.9197 136.754 88.9126C137.045 88.9055 137.335 88.8772 137.915 88.8207L189.311 83.8147C197.134 83.0528 201.045 82.6718 203.609 84.9028C206.172 87.1339 206.333 91.0582 206.655 98.907L207.714 124.775C208.015 132.119 208.165 135.791 206 138.237C203.834 140.683 200.17 140.979 192.841 141.572L142.595 145.637L68.6618 144.571L19.5706 149.47C11.7678 150.249 7.86634 150.638 5.29885 148.421C2.73137 146.203 2.5519 142.289 2.19296 134.46L0.75959 103.198Z" fill="url(#paint0_radial)"/>
<path d="M216.967 95.7398C216.98 88.1935 216.986 84.4204 219.336 82.0717C221.686 79.7231 225.46 79.7171 233.009 79.705L252.907 79.6731C253.545 79.6721 253.864 79.6716 254.182 79.6964C254.5 79.7212 254.815 79.7713 255.445 79.8715L295.378 86.2225C296.141 86.3439 296.523 86.4046 296.908 86.4282C297.293 86.4518 297.68 86.4383 298.453 86.4111L319.212 85.6813C327.309 85.3966 331.358 85.2543 333.812 87.7373C336.267 90.2203 336.076 94.2657 335.695 102.357L334.491 127.897C334.15 135.129 333.98 138.745 331.654 140.967C329.329 143.188 325.708 143.194 318.466 143.206L296.809 143.24L274.858 140.792L250.275 140.832L234.066 142.063C226.02 142.675 221.997 142.98 219.446 140.613C216.894 138.246 216.901 134.214 216.915 126.15L216.967 95.7398Z" fill="url(#paint1_linear)"/>
<path d="M492.693 104.909C491.902 96.7053 491.506 92.6034 493.888 89.9436C496.271 87.2838 500.388 87.2302 508.622 87.123L526.635 86.8885L573.589 86.2772L594.736 86.0019C601.007 85.9203 604.143 85.8795 606.35 87.6659C608.556 89.4524 609.167 92.5262 610.388 98.6739L615.406 123.933C616.915 131.528 617.67 135.326 615.747 138.142C613.824 140.958 610.003 141.652 602.36 143.04L582.091 146.72C581.433 146.84 581.104 146.899 580.772 146.932C580.441 146.964 580.107 146.968 579.44 146.977L535.61 147.547L512.767 149.634C505.389 150.308 501.7 150.645 499.202 148.576C496.703 146.507 496.348 142.821 495.637 135.449L492.693 104.909Z" fill="url(#paint2_linear)"/>
<path d="M346.643 96.6811C347.345 88.7745 347.695 84.8213 350.398 82.6831C353.102 80.545 357.029 81.1141 364.885 82.2525L375.013 83.7203C375.6 83.8054 375.894 83.8479 376.189 83.8686C376.485 83.8893 376.781 83.888 377.374 83.8856L411.368 83.7442C411.962 83.7417 412.258 83.7405 412.554 83.7612C412.849 83.7819 413.143 83.8244 413.73 83.9095L428.702 86.0792C435.793 87.1068 439.338 87.6206 441.312 90.1166C443.286 92.6127 442.97 96.1812 442.337 103.318L440.166 127.781C439.385 136.588 438.994 140.992 435.936 143.13C432.878 145.267 428.609 144.121 420.07 141.827L410.533 139.266C409.243 138.92 408.599 138.747 407.937 138.683C407.276 138.619 406.61 138.665 405.278 138.757L374.452 140.891C373.829 140.934 373.518 140.956 373.206 140.953C372.895 140.95 372.584 140.923 371.962 140.869L358.907 139.735C351.384 139.082 347.622 138.755 345.492 136.214C343.361 133.673 343.695 129.913 344.362 122.391L346.643 96.6811Z" fill="url(#paint3_radial)"/>
<path d="M18.88 52.832C18.624 52.416 18.432 51.904 18.304 51.296C18.304 50.048 18.704 49.104 19.504 48.464C19.856 48.176 20.672 48 21.952 47.936C22.752 47.904 23.456 48.256 24.064 48.992C24.704 49.696 25.024 50.448 25.024 51.248C25.024 52.528 24.56 53.616 23.632 54.512C22.736 55.408 21.648 55.856 20.368 55.856C18.768 55.856 17.44 55.424 16.384 54.56C13.248 51.968 11.68 48.304 11.68 43.568C11.68 38.576 13.36 34.496 16.72 31.328C18.544 29.6 20.464 28.736 22.48 28.736L25.744 32C22.864 32.288 20.528 33.344 18.736 35.168C16.24 37.728 14.992 41.008 14.992 45.008C14.992 45.808 15.168 46.912 15.52 48.32C16.16 50.848 17.28 52.352 18.88 52.832ZM41.4809 34.592L41.2409 31.376C41.1129 29.648 41.0489 27.024 41.0489 23.504L43.5449 25.952C43.2249 26.592 43.2889 27.408 43.7369 28.4C43.8009 28.528 44.0409 28.64 44.4569 28.736C45.5129 28.704 46.6169 28.704 47.7689 28.736L51.1289 32.096H44.2169V57.872L40.5209 53.984L40.7129 40.832C40.7129 39.744 40.3289 38.48 39.5609 37.04C38.7929 35.568 37.9449 34.496 37.0169 33.824C36.0889 33.152 35.1769 32.816 34.2809 32.816C32.2329 32.816 30.7289 33.6 29.7689 35.168C30.2489 35.072 30.7929 35.024 31.4009 35.024C34.5049 35.024 36.2489 36.448 36.6329 39.296C36.8889 41.312 35.2569 44.208 31.7369 47.984L28.2809 44.096C29.0169 43.424 29.9929 42.464 31.2089 41.216C32.7129 39.616 33.4649 38.64 33.4649 38.288C33.4649 37.904 33.1929 37.712 32.6489 37.712C32.4249 37.712 31.7049 38.048 30.4889 38.72C29.2729 39.392 28.4249 39.728 27.9449 39.728C27.5609 39.728 27.2089 39.616 26.8889 39.392C25.4809 38.528 24.7769 37.344 24.7769 35.84C24.7769 34.784 25.1129 33.68 25.7849 32.528C26.4889 31.376 27.3049 30.528 28.2329 29.984C29.3529 29.344 30.6809 29.024 32.2169 29.024C37.0809 29.024 40.1689 30.88 41.4809 34.592ZM49.0818 34.4H49.1298C48.7138 34.176 48.2178 33.68 47.6418 32.912L47.1137 31.904L43.9457 28.736H70.4898L73.8978 32.096H66.8898V57.44L64.9698 55.328C64.2338 52.352 63.3538 50.432 62.3298 49.568C60.8898 48.288 59.8178 47.472 59.1138 47.12C58.0258 48.56 56.6018 49.28 54.8418 49.28C53.0178 49.28 51.6258 48.512 50.6658 46.976C50.6658 46.72 50.6018 46.368 50.4738 45.92C50.3778 45.44 50.3298 45.088 50.3298 44.864C50.3298 43.36 50.8738 42.192 51.9618 41.36C52.9218 40.592 54.1698 40.208 55.7058 40.208C56.1858 40.208 56.6018 40.256 56.9538 40.352C56.7298 38.72 55.9618 37.44 54.6497 36.512C54.3298 36.288 53.3378 35.936 51.6738 35.456C50.3298 35.04 49.4658 34.688 49.0818 34.4ZM63.6258 32.192H54.3138C56.0418 33.632 57.1458 34.608 57.6258 35.12C58.7778 36.336 59.5138 37.584 59.8338 38.864C60.3458 40.944 60.5698 42.448 60.5058 43.376C61.3058 44.208 62.3458 45.424 63.6258 47.024V32.192ZM91.5464 32.096V57.536L88.2344 53.696L88.1864 42.512C88.0584 42 87.6744 41.488 87.0344 40.976C86.4264 40.432 85.8504 40.16 85.3064 40.16C84.5384 40.16 83.8344 40.64 83.1944 41.6C80.5384 45.6 78.7944 47.68 77.9624 47.84C77.7384 47.872 77.4184 47.888 77.0024 47.888C75.9784 47.888 75.2584 47.728 74.8424 47.408C73.9784 47.184 72.6664 45.408 70.9064 42.08L73.4504 39.584C73.5464 40.512 73.7384 41.28 74.0264 41.888C74.5384 42.88 74.9864 43.376 75.3704 43.376C75.7544 43.376 77.0504 41.888 79.2584 38.912C78.9704 35.872 77.6744 34.304 75.3704 34.208C73.8664 34.144 72.9064 34.048 72.4904 33.92C71.7224 33.664 71.0024 33.04 70.3304 32.048L69.7064 31.712L66.6344 28.736H94.7144L98.0744 32.096H91.5464ZM88.2344 32.096H79.2104C80.6824 33.312 81.4184 34.896 81.4184 36.848V36.896C82.8264 35.936 83.7064 35.456 84.0584 35.456C85.1144 35.456 86.5064 36.544 88.2344 38.72V32.096ZM129.435 52.016C128.027 53.136 126.315 53.696 124.299 53.696C122.411 53.696 120.715 53.2 119.211 52.208C118.315 51.6 117.147 50.544 115.707 49.04C113.051 46.256 110.475 40.384 107.979 31.424L110.763 32.912C110.891 33.232 111.131 33.872 111.483 34.832L111.675 35.408C112.443 37.488 113.771 40.144 115.659 43.376C116.427 44.752 117.659 46.032 119.355 47.216C121.083 48.4 122.667 48.992 124.107 48.992C125.227 48.992 126.235 48.736 127.131 48.224C128.155 47.648 128.747 46.848 128.907 45.824C129.067 44.896 128.779 44.096 128.043 43.424C127.403 43.968 126.667 44.24 125.835 44.24C124.843 44.24 124.011 43.92 123.339 43.28C122.699 42.64 122.379 41.84 122.379 40.88C122.379 39.952 122.699 39.136 123.339 38.432C123.979 37.696 124.763 37.328 125.691 37.328C126.427 37.328 127.083 37.488 127.659 37.808C128.491 37.296 128.907 36.592 128.907 35.696C128.907 34 128.091 33.152 126.459 33.152C125.275 33.152 124.283 33.344 123.483 33.728C123.451 33.728 122.651 34.224 121.083 35.216C120.699 35.504 120.395 35.808 120.171 36.128C121.067 36.864 121.515 37.936 121.515 39.344C121.515 40.912 120.523 41.696 118.539 41.696C115.947 41.696 114.667 40.352 114.699 37.664C114.731 35.04 116.315 32.896 119.451 31.232C121.307 30.272 123.195 29.792 125.115 29.792C126.747 29.792 128.139 30.192 129.291 30.992C130.795 32.016 131.547 33.52 131.547 35.504C131.547 36.4 131.387 37.472 131.067 38.72C130.747 39.936 130.347 40.848 129.867 41.456C131.211 43.28 131.883 45.04 131.883 46.736C131.883 48.944 131.067 50.704 129.435 52.016ZM155.239 52.832C154.983 52.416 154.791 51.904 154.663 51.296C154.663 50.048 155.063 49.104 155.863 48.464C156.215 48.176 157.031 48 158.311 47.936C159.111 47.904 159.815 48.256 160.423 48.992C161.063 49.696 161.383 50.448 161.383 51.248C161.383 52.528 160.919 53.616 159.991 54.512C159.095 55.408 158.007 55.856 156.727 55.856C155.127 55.856 153.799 55.424 152.743 54.56C149.607 51.968 148.039 48.304 148.039 43.568C148.039 38.576 149.719 34.496 153.079 31.328C154.903 29.6 156.823 28.736 158.839 28.736L162.103 32C159.223 32.288 156.887 33.344 155.095 35.168C152.599 37.728 151.351 41.008 151.351 45.008C151.351 45.808 151.527 46.912 151.879 48.32C152.519 50.848 153.639 52.352 155.239 52.832ZM177.84 34.592L177.6 31.376C177.472 29.648 177.408 27.024 177.408 23.504L179.904 25.952C179.584 26.592 179.648 27.408 180.096 28.4C180.16 28.528 180.4 28.64 180.816 28.736C181.872 28.704 182.976 28.704 184.128 28.736L187.488 32.096H180.576V57.872L176.88 53.984L177.072 40.832C177.072 39.744 176.688 38.48 175.92 37.04C175.152 35.568 174.304 34.496 173.376 33.824C172.448 33.152 171.536 32.816 170.64 32.816C168.592 32.816 167.088 33.6 166.128 35.168C166.608 35.072 167.152 35.024 167.76 35.024C170.864 35.024 172.608 36.448 172.992 39.296C173.248 41.312 171.616 44.208 168.096 47.984L164.64 44.096C165.376 43.424 166.352 42.464 167.568 41.216C169.072 39.616 169.824 38.64 169.824 38.288C169.824 37.904 169.552 37.712 169.008 37.712C168.784 37.712 168.064 38.048 166.848 38.72C165.632 39.392 164.784 39.728 164.304 39.728C163.92 39.728 163.568 39.616 163.248 39.392C161.84 38.528 161.136 37.344 161.136 35.84C161.136 34.784 161.472 33.68 162.144 32.528C162.848 31.376 163.664 30.528 164.592 29.984C165.712 29.344 167.04 29.024 168.576 29.024C173.44 29.024 176.528 30.88 177.84 34.592ZM204.545 23.936C202.177 22.144 199.473 21.248 196.433 21.248C194.769 21.248 192.945 21.904 190.961 23.216C190.513 23.664 189.985 24.304 189.377 25.136C188.673 26.096 188.337 26.72 188.369 27.008L189.185 28.736H193.505L196.865 32.096H190.145V57.056L186.737 53.792L186.785 32.096H183.521L180.161 28.736H186.401C185.985 28.32 185.569 27.888 185.153 27.44C184.769 26.96 184.577 26.432 184.577 25.856C184.609 24.896 184.785 24.144 185.105 23.6C186.001 22.16 186.817 21.104 187.553 20.432C188.289 19.728 189.409 19.024 190.913 18.32C191.841 17.872 192.945 17.648 194.225 17.648C197.393 17.648 200.769 18.752 204.353 20.96C205.473 21.664 206.961 22.96 208.817 24.848L209.873 27.968L204.545 23.936ZM194.582 34.4H194.63C194.214 34.176 193.718 33.68 193.142 32.912L192.614 31.904L189.446 28.736H215.99L219.398 32.096H212.39V57.44L210.47 55.328C209.734 52.352 208.854 50.432 207.83 49.568C206.39 48.288 205.318 47.472 204.614 47.12C203.526 48.56 202.102 49.28 200.342 49.28C198.518 49.28 197.126 48.512 196.166 46.976C196.166 46.72 196.102 46.368 195.974 45.92C195.878 45.44 195.83 45.088 195.83 44.864C195.83 43.36 196.374 42.192 197.462 41.36C198.422 40.592 199.67 40.208 201.206 40.208C201.686 40.208 202.102 40.256 202.454 40.352C202.23 38.72 201.462 37.44 200.15 36.512C199.83 36.288 198.838 35.936 197.174 35.456C195.83 35.04 194.966 34.688 194.582 34.4ZM209.126 32.192H199.814C201.542 33.632 202.646 34.608 203.126 35.12C204.278 36.336 205.014 37.584 205.334 38.864C205.846 40.944 206.07 42.448 206.006 43.376C206.806 44.208 207.846 45.424 209.126 47.024V32.192ZM225.334 41.552C224.758 41.904 223.942 42.08 222.886 42.08C221.254 42.08 219.846 41.488 218.662 40.304C217.478 39.088 216.886 37.648 216.886 35.984C216.886 34.48 217.478 33.12 218.662 31.904C219.846 30.656 221.174 30.032 222.646 30.032C224.246 30.032 225.606 30.656 226.726 31.904C227.878 33.152 228.454 34.576 228.454 36.176C228.454 37.168 228.15 38.192 227.542 39.248C226.934 40.272 226.198 41.04 225.334 41.552ZM228.934 56.336C227.014 54.512 223.494 51.824 218.374 48.272V41.6C220.102 43.008 222.182 44.864 224.614 47.168C225.99 48.48 228.662 51.6 232.63 56.528V59.936L228.934 56.336ZM223.99 33.44C223.318 33.44 222.454 33.904 221.398 34.832C220.726 35.44 220.374 36.32 220.342 37.472C220.31 38.336 220.614 38.768 221.254 38.768C221.734 38.768 222.422 38.48 223.318 37.904C224.214 37.328 224.758 36.816 224.95 36.368C225.046 36.144 225.094 35.664 225.094 34.928C225.094 33.936 224.726 33.44 223.99 33.44ZM262.935 35.744L262.599 33.248L262.263 24.656L264.471 26.24C264.535 26.368 264.615 26.512 264.711 26.672C264.775 27.472 264.935 28.016 265.191 28.304L265.863 28.736C266.183 28.704 266.647 28.688 267.255 28.688C268.247 28.688 268.887 28.72 269.175 28.784L272.439 32.096H265.719L265.671 56.864C264.711 56.224 263.527 55.152 262.119 53.648L262.455 41.12C261.783 39.072 261.047 37.728 260.247 37.088L252.231 45.248L247.719 43.568L250.311 40.832C250.503 40.64 250.599 40.288 250.599 39.776C250.599 38.496 250.231 37.872 249.495 37.904C249.335 37.904 248.391 38.208 246.663 38.816C246.023 38.944 245.415 38.736 244.839 38.192C244.295 37.648 244.023 37.056 244.023 36.416C244.023 35.936 244.183 35.424 244.503 34.88C246.775 31.104 249.847 29.184 253.719 29.12C255.735 29.088 257.591 29.728 259.287 31.04C260.823 32.224 262.039 33.792 262.935 35.744ZM253.047 38.336L257.511 33.92C256.487 33.088 255.511 32.672 254.583 32.672C252.471 32.672 250.935 33.392 249.975 34.832C251.639 35.056 252.663 36.224 253.047 38.336ZM263.278 55.664C262.414 54.128 261.886 53.216 261.694 52.928C260.67 51.904 259.006 51.392 256.702 51.392C255.614 51.392 253.726 51.456 251.038 51.584C249.566 51.648 248.174 51.392 246.862 50.816C245.422 50.208 244.334 49.296 243.598 48.08C242.766 46.672 242.35 45.104 242.35 43.376C242.35 42.896 242.398 42.048 242.494 40.832C242.494 40.544 242.542 40.192 242.638 39.776C242.734 39.584 242.862 39.488 243.022 39.488C243.214 39.488 243.886 40.064 245.038 41.216C244.814 41.664 244.702 42.048 244.702 42.368C244.702 44.064 245.646 45.376 247.534 46.304C247.982 46.528 250.206 46.736 254.206 46.928C256.158 47.024 258.078 47.44 259.966 48.176C261.534 49.104 262.542 49.936 262.99 50.672C264.206 52.176 264.974 53.44 265.294 54.464C265.582 55.328 265.726 56.768 265.726 58.784C264.926 58.24 264.11 57.2 263.278 55.664ZM281.133 32.096V40.4C281.837 40.24 282.621 39.792 283.485 39.056C284.381 38.288 285.021 37.568 285.405 36.896C285.725 36.384 286.189 35.84 286.797 35.264C288.237 35.872 289.437 37.088 290.397 38.912C291.261 40.576 291.693 42.24 291.693 43.904C291.693 47.136 290.797 49.6 289.005 51.296C287.213 52.992 284.749 53.728 281.613 53.504C279.437 53.344 277.597 52.48 276.093 50.912C275.165 49.92 274.045 48.192 272.733 45.728C271.421 42.624 270.605 39.616 270.285 36.704C270.285 36.608 270.141 35.104 269.853 32.192L272.301 33.536C272.461 35.872 273.021 38.304 273.981 40.832C275.101 43.808 276.413 45.84 277.917 46.928C278.973 47.92 280.461 48.416 282.381 48.416C284.909 48.416 286.845 47.424 288.189 45.44C288.765 44.576 289.053 43.696 289.053 42.8C289.053 42.064 288.797 41.344 288.285 40.64C287.965 41.152 287.421 41.744 286.653 42.416C284.733 44.176 283.053 45.056 281.613 45.056C279.821 45.056 278.557 43.888 277.821 41.552C277.789 41.168 277.789 38.016 277.821 32.096H268.653L265.293 28.736H293.757L297.117 32.096H281.133ZM297.426 31.28C297.17 29.04 297.042 26.576 297.042 23.888L298.914 25.424C299.074 26.448 299.298 27.312 299.586 28.016C299.714 28.208 299.89 28.448 300.114 28.736H303.714L307.074 32.096H300.402V58.064L297.138 54.512V36.32C297.138 35.36 296.946 34.608 296.562 34.064C295.634 32.72 294.482 32.048 293.106 32.048C292.946 32.048 292.69 32.08 292.338 32.144L288.978 28.832C291.122 28.608 292.754 28.576 293.874 28.736C295.41 28.96 296.594 29.808 297.426 31.28ZM318.841 27.92C318.841 27.888 318.841 27.856 318.841 27.824C318.617 27.44 318.041 27.248 317.113 27.248C316.857 27.248 316.457 27.264 315.913 27.296C315.369 27.328 314.969 27.344 314.713 27.344C314.969 27.344 313.161 27.328 309.289 27.296C308.201 27.296 307.161 27.072 306.169 26.624C304.889 26.08 304.249 25.328 304.249 24.368C304.057 24.08 303.961 23.68 303.961 23.168C303.961 21.536 304.393 20.176 305.257 19.088L308.137 20.672C307.017 21.088 306.457 21.552 306.457 22.064C306.457 22.256 306.473 22.416 306.505 22.544C306.761 23.024 307.257 23.312 307.993 23.408C308.537 23.472 309.689 23.52 311.449 23.552C315.033 23.584 317.209 23.712 317.977 23.936C320.281 24.576 321.305 26.176 321.049 28.736H324.601L328.009 32.096H316.873V32.288C318.697 32.544 320.153 33.328 321.241 34.64C322.361 35.952 322.921 37.504 322.921 39.296C322.921 42.048 321.801 43.424 319.561 43.424C317.481 43.424 316.441 42.56 316.441 40.832C316.441 40.032 316.649 39.328 317.065 38.72C317.481 38.112 318.057 37.808 318.793 37.808C319.337 37.808 319.785 37.872 320.137 38C319.945 37.36 319.449 36.784 318.649 36.272C318.393 36.016 317.769 35.76 316.777 35.504C316.553 38.928 315.273 42.48 312.937 46.16L311.113 49.088C310.985 49.664 310.921 50.192 310.921 50.672C310.921 52.016 311.353 52.688 312.217 52.688C312.889 52.688 313.785 52.384 314.905 51.776C316.025 51.136 316.841 50.528 317.353 49.952C315.529 49.76 314.617 48.768 314.617 46.976C314.617 46.048 314.921 45.216 315.529 44.48C316.169 43.744 316.985 43.376 317.977 43.376C321.049 43.376 322.585 44.672 322.585 47.264C322.585 48.16 322.329 49.168 321.817 50.288C321.337 51.408 320.745 52.272 320.041 52.88C317.769 54.8 315.609 55.792 313.561 55.856C309.465 55.984 307.353 53.968 307.225 49.808C307.481 48.72 307.945 47.664 308.617 46.64C308.681 46.544 309.385 45.584 310.729 43.76C310.601 42.96 310.009 42.528 308.953 42.464C308.121 42.4 307.417 42.416 306.841 42.512C306.649 42.032 305.721 40.352 304.057 37.472C305.433 36.32 306.921 35.248 308.521 34.256C310.601 32.976 312.249 32.272 313.465 32.144V32.096H303.289L299.929 28.736H318.793C318.889 28.48 318.905 28.208 318.841 27.92ZM311.497 36.944C310.729 37.392 309.977 37.888 309.241 38.432C309.721 38.72 310.361 39.12 311.161 39.632C311.641 40.016 311.993 40.528 312.217 41.168C313.049 39.408 313.465 37.68 313.465 35.984C312.953 36.176 312.297 36.496 311.497 36.944ZM475.794 126.016C474.386 127.136 472.674 127.696 470.658 127.696C468.77 127.696 467.074 127.2 465.57 126.208C464.674 125.6 463.506 124.544 462.066 123.04C459.41 120.256 456.834 114.384 454.338 105.424L457.122 106.912C457.25 107.232 457.49 107.872 457.842 108.832L458.034 109.408C458.802 111.488 460.13 114.144 462.018 117.376C462.786 118.752 464.018 120.032 465.714 121.216C467.442 122.4 469.026 122.992 470.466 122.992C471.586 122.992 472.594 122.736 473.49 122.224C474.514 121.648 475.106 120.848 475.266 119.824C475.426 118.896 475.138 118.096 474.402 117.424C473.762 117.968 473.026 118.24 472.194 118.24C471.202 118.24 470.37 117.92 469.698 117.28C469.058 116.64 468.738 115.84 468.738 114.88C468.738 113.952 469.058 113.136 469.698 112.432C470.338 111.696 471.122 111.328 472.05 111.328C472.786 111.328 473.442 111.488 474.018 111.808C474.85 111.296 475.266 110.592 475.266 109.696C475.266 108 474.45 107.152 472.818 107.152C471.634 107.152 470.642 107.344 469.842 107.728C469.81 107.728 469.01 108.224 467.442 109.216C467.058 109.504 466.754 109.808 466.53 110.128C467.426 110.864 467.874 111.936 467.874 113.344C467.874 114.912 466.882 115.696 464.898 115.696C462.306 115.696 461.026 114.352 461.058 111.664C461.09 109.04 462.674 106.896 465.81 105.232C467.666 104.272 469.554 103.792 471.474 103.792C473.106 103.792 474.498 104.192 475.65 104.992C477.154 106.016 477.906 107.52 477.906 109.504C477.906 110.4 477.746 111.472 477.426 112.72C477.106 113.936 476.706 114.848 476.226 115.456C477.57 117.28 478.242 119.04 478.242 120.736C478.242 122.944 477.426 124.704 475.794 126.016ZM30.592 171.936C28.224 170.144 25.52 169.248 22.48 169.248C20.816 169.248 18.992 169.904 17.008 171.216C16.56 171.664 16.032 172.304 15.424 173.136C14.72 174.096 14.384 174.72 14.416 175.008L15.232 176.736H19.552L22.912 180.096H16.192V205.056L12.784 201.792L12.832 180.096H9.568L6.208 176.736H12.448C12.032 176.32 11.616 175.888 11.2 175.44C10.816 174.96 10.624 174.432 10.624 173.856C10.656 172.896 10.832 172.144 11.152 171.6C12.048 170.16 12.864 169.104 13.6 168.432C14.336 167.728 15.456 167.024 16.96 166.32C17.888 165.872 18.992 165.648 20.272 165.648C23.44 165.648 26.816 166.752 30.4 168.96C31.52 169.664 33.008 170.96 34.864 172.848L35.92 175.968L30.592 171.936ZM37.3326 180.096V205.968L35.1726 202.848C32.8366 197.024 28.7886 193.888 23.0286 193.44L19.5246 188.496C22.1166 186.608 24.2286 185.248 25.8606 184.416C28.9006 182.88 31.6206 181.712 34.0206 180.912V180.096H18.8046L15.4926 176.736H40.5966L43.9086 180.096H37.3326ZM34.0206 185.76C31.5886 186.688 28.9966 188.032 26.2446 189.792C29.5086 191.36 32.1006 193.472 34.0206 196.128V185.76ZM62.5008 180.096V205.344L59.0448 201.936L59.2368 186.768C59.2368 186.16 58.7728 185.168 57.8448 183.792C56.7888 182.224 55.8768 181.488 55.1088 181.584C53.9888 181.712 53.3328 182.112 53.1407 182.784C55.5408 184.576 56.7408 186.192 56.7408 187.632C56.7408 187.952 56.6288 188.56 56.4048 189.456C55.9248 190.672 54.8368 191.28 53.1407 191.28C51.7648 191.28 50.5808 190.608 49.5888 189.264C49.2048 189.904 48.6288 190.464 47.8608 190.944C47.1248 191.392 46.4048 191.616 45.7008 191.616C44.6768 191.616 43.8448 191.216 43.2048 190.416C42.5968 189.584 42.2928 188.656 42.2928 187.632C42.2928 186.64 42.7248 185.584 43.5888 184.464C44.3568 183.44 45.2368 182.688 46.2288 182.208C46.0048 181.824 45.6688 181.36 45.2208 180.816C44.5808 180.336 43.8128 180.08 42.9168 180.048C43.8448 180.08 42.9648 180.112 40.2767 180.144L36.9167 176.784H43.0128C44.2288 176.784 45.3008 177.12 46.2288 177.792C47.0608 178.592 47.4928 179.008 47.5247 179.04C47.9728 179.488 48.3088 179.952 48.5328 180.432C49.4288 178.768 50.9488 177.6 53.0928 176.928C53.6688 176.768 54.0688 176.688 54.2928 176.688C55.4768 176.688 57.2048 178.528 59.4768 182.208L59.9568 182.976L59.4768 177.504L59.1888 171.84C60.2128 172.736 61.0128 173.488 61.5888 174.096C61.7808 174.384 61.9088 174.752 61.9728 175.2C61.9728 175.424 61.9728 175.648 61.9728 175.872C62.1968 176.288 62.5648 176.576 63.0768 176.736H65.2848L68.6448 180.096H62.5008ZM59.74 205.584C58.3 202 55.884 200.208 52.492 200.208L50.62 195.216C51.036 194.864 54.028 192.928 59.596 189.408C59.916 189.44 60.236 189.456 60.556 189.456C60.876 189.456 61.42 189.424 62.188 189.36V206.736L59.74 205.584ZM59.116 194.448C58.636 194.8 57.468 195.568 55.612 196.752C56.508 197.136 57.356 197.808 58.156 198.768C58.188 198.832 58.508 199.264 59.116 200.064V194.448ZM87.8189 180.144C88.3949 181.136 88.5229 182.416 88.2029 183.984C87.5629 186.896 85.9949 188.352 83.4989 188.352C82.2509 188.352 80.9709 187.856 79.6589 186.864C78.4749 185.936 77.5949 184.848 77.0189 183.6C75.5469 187.024 73.9469 188.736 72.2189 188.736C71.4509 188.736 70.4749 188.24 69.2909 187.248C68.2349 186.352 67.7069 185.552 67.7069 184.848C67.7069 184.72 67.7229 184.592 67.7549 184.464L68.3309 183.312C68.4909 182.992 68.7629 182.832 69.1469 182.832C70.1389 183.888 70.7469 184.416 70.9709 184.416C71.5469 184.416 72.1709 183.904 72.8429 182.88C73.5149 181.856 73.8349 181.024 73.8029 180.384C73.8029 180.192 73.7549 180.096 73.6589 180.096H65.2589L61.9469 176.736H90.8909L94.3949 180.096H91.3709C89.7709 180.096 88.6189 180.112 87.9149 180.144H87.8189ZM84.9869 180.912C84.7629 180.4 84.5549 180.128 84.3629 180.096H78.7949C78.8589 180.512 79.0189 180.96 79.2749 181.44C80.2029 183.2 81.4829 184 83.1149 183.84C84.0109 183.84 84.6509 183.536 85.0349 182.928C85.2589 182.768 85.3709 182.528 85.3709 182.208C85.3709 181.856 85.2429 181.424 84.9869 180.912ZM83.4617 190.752C83.8457 191.424 84.0378 192.16 84.0378 192.96C84.0378 194.016 83.6377 194.896 82.8377 195.6C82.0057 196.272 81.0617 196.608 80.0057 196.608C79.0777 196.608 78.2457 196.368 77.5097 195.888C76.6777 195.344 76.1657 194.64 75.9737 193.776C75.8457 193.168 75.7817 192.656 75.7817 192.24C75.7817 190.704 76.3897 189.44 77.6057 188.448C78.7577 187.552 80.1017 187.104 81.6377 187.104C82.3417 187.104 83.0137 187.2 83.6537 187.392C87.1097 188.544 88.8217 190.944 88.7897 194.592C88.7897 197.568 87.6537 199.904 85.3817 201.6C83.9097 202.72 82.2777 203.28 80.4857 203.28C79.2377 203.28 77.7177 202.912 75.9257 202.176C72.4057 200.736 69.5097 197.472 67.2377 192.384C67.2057 192.288 66.9497 191.632 66.4697 190.416C65.0297 186.736 64.0857 183.424 63.6377 180.48L65.7017 181.68C66.5657 183.696 67.9577 186.64 69.8777 190.512C72.8217 195.792 76.1977 198.432 80.0057 198.432C81.5097 198.432 82.8377 198.048 83.9897 197.28C85.2697 196.416 85.8937 195.248 85.8617 193.776C85.8297 192.432 85.2377 191.472 84.0857 190.896C83.8937 190.8 83.6857 190.752 83.4617 190.752ZM123.903 183.744L123.567 181.248L123.231 172.656L125.439 174.24C125.503 174.368 125.583 174.512 125.679 174.672C125.743 175.472 125.903 176.016 126.159 176.304L126.831 176.736C127.151 176.704 127.615 176.688 128.223 176.688C129.215 176.688 129.855 176.72 130.143 176.784L133.407 180.096H126.687L126.639 204.864C125.679 204.224 124.495 203.152 123.087 201.648L123.423 189.12C122.751 187.072 122.015 185.728 121.215 185.088L113.199 193.248L108.687 191.568L111.279 188.832C111.471 188.64 111.567 188.288 111.567 187.776C111.567 186.496 111.199 185.872 110.463 185.904C110.303 185.904 109.359 186.208 107.631 186.816C106.991 186.944 106.383 186.736 105.807 186.192C105.263 185.648 104.991 185.056 104.991 184.416C104.991 183.936 105.151 183.424 105.471 182.88C107.743 179.104 110.815 177.184 114.687 177.12C116.703 177.088 118.559 177.728 120.255 179.04C121.791 180.224 123.007 181.792 123.903 183.744ZM114.015 186.336L118.479 181.92C117.455 181.088 116.479 180.672 115.551 180.672C113.439 180.672 111.903 181.392 110.943 182.832C112.607 183.056 113.631 184.224 114.015 186.336ZM122.999 197.376V193.44H126.215L126.263 205.2C125.367 204.72 124.599 204.256 123.959 203.808C123.575 202.144 123.367 201.248 123.335 201.12C123.175 200.736 122.903 200.544 122.519 200.544C121.751 200.544 121.367 200.88 121.367 201.552C121.335 201.712 121.319 201.776 121.319 201.744L122.231 202.896L119.303 203.712C119.207 203.232 119.031 202.768 118.775 202.32C117.559 200.496 116.103 199.584 114.407 199.584C112.103 199.584 110.887 200.464 110.759 202.224C110.727 202.64 111.175 203.104 112.103 203.616C112.103 203.328 112.119 203.104 112.151 202.944C112.631 201.888 113.687 201.36 115.319 201.36C116.791 201.36 117.655 201.904 117.911 202.992C117.975 203.248 117.943 203.712 117.815 204.384C117.463 206.368 116.167 207.36 113.927 207.36C110.183 207.36 107.959 205.904 107.255 202.992C106.999 201.968 107.127 200.912 107.639 199.824C108.759 197.328 110.647 196.08 113.303 196.08C115.767 196.08 117.703 196.88 119.111 198.48C119.175 197.968 119.463 197.552 119.975 197.232C120.455 196.912 120.951 196.784 121.463 196.848C121.975 196.912 122.487 197.088 122.999 197.376ZM133.27 179.28C133.014 177.04 132.886 174.576 132.886 171.888L134.758 173.424C134.918 174.448 135.142 175.312 135.43 176.016C135.558 176.208 135.734 176.448 135.958 176.736H139.558L142.918 180.096H136.246V206.064L132.982 202.512V184.32C132.982 183.36 132.79 182.608 132.406 182.064C131.478 180.72 130.326 180.048 128.95 180.048C128.79 180.048 128.534 180.08 128.182 180.144L124.822 176.832C126.966 176.608 128.598 176.576 129.718 176.736C131.254 176.96 132.438 177.808 133.27 179.28ZM144.797 170.208H144.845C144.973 170.176 145.725 170.112 147.101 170.016C150.269 169.792 152.589 170.112 154.061 170.976C156.301 172.32 157.389 174.192 157.325 176.592H159.725L163.037 180.096H144.989V195.696C144.989 196.528 145.453 196.944 146.381 196.944C147.469 196.944 148.733 196.224 150.173 194.784C151.613 193.344 152.493 192.016 152.813 190.8H152.669C151.677 190.832 150.829 190.544 150.125 189.936C149.453 189.328 149.117 188.56 149.117 187.632C149.117 187.312 149.149 186.992 149.213 186.672C149.757 184.816 150.973 183.888 152.861 183.888C154.237 183.888 155.341 184.448 156.173 185.568C157.037 186.656 157.437 187.888 157.373 189.264C157.245 192.176 156.365 194.48 154.733 196.176C151.661 199.376 149.229 200.976 147.437 200.976C144.653 200.976 142.813 199.44 141.917 196.368C141.789 195.888 141.725 194.704 141.725 192.816V180.096H138.173L135.437 176.736H154.013C154.013 176.416 154.029 176.128 154.061 175.872C153.805 174.592 152.813 174.064 151.085 174.288C149.901 174.288 148.317 174.368 146.333 174.528C145.501 174.592 144.925 174.624 144.605 174.624C142.621 174.624 140.877 174.16 139.373 173.232C137.613 172.144 136.733 170.656 136.733 168.768C136.733 167.84 137.005 167.024 137.549 166.32C137.805 165.84 138.237 165.6 138.845 165.6C139.069 165.6 139.261 165.68 139.421 165.84C139.517 166.192 139.565 166.624 139.565 167.136C139.181 167.52 138.989 167.872 138.989 168.192C138.989 169.152 139.629 169.808 140.909 170.16C141.421 170.32 142.717 170.336 144.797 170.208ZM183.909 188.592C183.909 187.888 183.637 187.248 183.093 186.672C182.581 186.096 181.957 185.76 181.221 185.664C180.037 185.472 179.173 185.376 178.629 185.376C178.373 185.376 178.245 185.312 178.245 185.184V205.056L176.421 203.424C176.005 202.592 175.269 201.344 174.213 199.68C171.653 196.384 168.437 194.688 164.565 194.592L161.396 190.08C162.997 188.352 165.205 186.352 168.021 184.08C167.605 183.76 167.141 183.44 166.629 183.12C165.669 182.992 164.469 182.752 163.029 182.4C162.133 181.92 161.413 181.408 160.869 180.864L159.62 180L156.356 176.736H187.893L191.253 180.096H167.925C169.973 181.728 171.845 183.76 173.541 186.192C172.293 187.216 170.421 188.784 167.925 190.896C170.613 192.016 172.933 193.856 174.885 196.416V181.2C175.557 180.88 176.309 180.72 177.141 180.72C181.237 180.72 184.053 182.224 185.589 185.232C186.293 186.64 186.645 187.968 186.645 189.216C186.645 190.176 186.421 191.056 185.973 191.856C185.173 193.232 183.877 193.92 182.085 193.92C181.157 193.92 180.373 193.584 179.733 192.912C179.125 192.24 178.821 191.44 178.821 190.512C178.821 189.712 179.125 189.056 179.733 188.544C180.341 188.032 181.029 187.776 181.797 187.776C182.533 187.776 183.189 188.016 183.765 188.496L183.909 188.592L183.237 189.312L181.029 187.104L182.565 187.872C183.141 188.16 183.541 188.368 183.765 188.496L183.909 188.592ZM189.379 182.4H189.427C189.011 182.176 188.515 181.68 187.939 180.912L187.411 179.904L184.243 176.736H210.787L214.195 180.096H207.187V205.44L205.267 203.328C204.531 200.352 203.651 198.432 202.627 197.568C201.187 196.288 200.115 195.472 199.411 195.12C198.323 196.56 196.899 197.28 195.139 197.28C193.315 197.28 191.923 196.512 190.963 194.976C190.963 194.72 190.899 194.368 190.771 193.92C190.675 193.44 190.627 193.088 190.627 192.864C190.627 191.36 191.171 190.192 192.259 189.36C193.219 188.592 194.467 188.208 196.003 188.208C196.483 188.208 196.899 188.256 197.251 188.352C197.027 186.72 196.259 185.44 194.947 184.512C194.627 184.288 193.635 183.936 191.971 183.456C190.627 183.04 189.763 182.688 189.379 182.4ZM203.923 180.192H194.611C196.339 181.632 197.443 182.608 197.923 183.12C199.075 184.336 199.811 185.584 200.131 186.864C200.643 188.944 200.867 190.448 200.803 191.376C201.603 192.208 202.643 193.424 203.923 195.024V180.192ZM203.907 175.728H196.515L211.683 164.544L214.995 164.976L203.907 175.728Z" fill="white"/>
<path d="M9.904 106.096L6.496 102.736H35.728L39.232 106.096H9.904ZM24.592 112.432C26.576 111.248 27.888 109.776 28.528 108.016C28.656 107.76 28.848 107.632 29.104 107.632C29.776 107.632 30.88 108.656 32.416 110.704C34.048 112.848 34.848 114.64 34.816 116.08C34.752 119.984 33.104 123.152 29.872 125.584C28.72 126.448 27.072 126.88 24.928 126.88C22.72 126.88 20.72 126.24 18.928 124.96C16.496 123.2 14.368 120.032 12.544 115.456C12.16 114.464 11.248 111.696 9.808 107.152L12.448 107.968C13.888 112.928 16.016 116.736 18.832 119.392C20.656 121.088 22.832 121.936 25.36 121.936C27.92 121.936 29.872 120.512 31.216 117.664C31.536 116.96 31.584 116.08 31.36 115.024C31.104 113.84 30.864 113.248 30.64 113.248C30.48 113.472 30.16 113.904 29.68 114.544C29.04 115.376 27.808 116.08 25.984 116.656C25.376 116.88 24.528 117.008 23.44 117.04C21.392 117.104 19.648 116.368 18.208 114.832C17.536 114.128 17.2 113.072 17.2 111.664C17.2 110.288 17.632 109.216 18.496 108.448C19.392 107.68 20.544 107.344 21.952 107.44C22.848 107.504 23.584 107.856 24.16 108.496C24.768 109.136 25.072 109.904 25.072 110.8C25.072 111.312 24.912 111.856 24.592 112.432ZM39.0509 105.28C38.7949 103.04 38.6669 100.576 38.6669 97.888L40.5389 99.424C40.6989 100.448 40.9229 101.312 41.2109 102.016C41.3389 102.208 41.5149 102.448 41.7389 102.736H45.3389L48.6989 106.096H42.0269V132.064L38.7629 128.512V110.32C38.7629 109.36 38.5709 108.608 38.1869 108.064C37.2589 106.72 36.1069 106.048 34.7309 106.048C34.5709 106.048 34.3149 106.08 33.9629 106.144L30.6029 102.832C32.7469 102.608 34.3789 102.576 35.4989 102.736C37.0349 102.96 38.2189 103.808 39.0509 105.28ZM57.682 106.096V111.952C57.682 111.568 57.666 112.24 57.634 113.968C57.602 114.448 57.65 114.704 57.778 114.736C58.962 114.448 60.306 113.424 61.81 111.664C63.218 110 64.034 109.168 64.258 109.168C64.546 109.168 64.802 109.296 65.026 109.552C67.682 111.824 69.01 114.688 69.01 118.144C69.01 122.016 67.698 124.88 65.074 126.736C63.538 127.824 61.714 128.368 59.602 128.368C56.594 128.368 54.194 127.376 52.402 125.392C50.802 123.632 49.458 121.296 48.37 118.384C47.378 115.792 46.722 113.184 46.402 110.56C46.402 110.464 46.258 108.96 45.97 106.048L48.466 107.392C48.658 109.952 49.218 112.432 50.146 114.832C52.258 120.176 55.234 122.848 59.074 122.848C60.226 122.848 61.378 122.56 62.53 121.984C63.714 121.376 64.578 120.592 65.122 119.632C65.73 118.544 66.034 117.648 66.034 116.944C66.034 116.272 65.826 115.6 65.41 114.928C64.834 115.664 63.618 116.72 61.762 118.096C60.738 118.864 59.714 119.248 58.69 119.248C56.61 119.248 55.218 117.936 54.514 115.312C54.418 114.896 54.37 114.096 54.37 112.912V106.096H45.106L41.698 102.736H70.642L74.05 106.096H57.682ZM62.05 134.08C61.442 135.328 60.514 135.952 59.266 135.952C58.274 135.952 57.474 135.648 56.866 135.04C56.258 134.464 55.954 133.68 55.954 132.688C55.954 131.792 56.258 130.992 56.866 130.288C57.506 129.584 58.274 129.232 59.17 129.232C60.194 129.232 60.994 129.536 61.57 130.144C62.146 130.752 62.434 131.504 62.434 132.4C62.434 132.976 62.306 133.536 62.05 134.08ZM73.9259 105.28C73.6699 103.04 73.5419 100.576 73.5419 97.888L75.4139 99.424C75.5739 100.448 75.7979 101.312 76.0859 102.016C76.2139 102.208 76.3899 102.448 76.6139 102.736H80.2139L83.5739 106.096H76.9019V132.064L73.6379 128.512V110.32C73.6379 109.36 73.4459 108.608 73.0619 108.064C72.1339 106.72 70.9819 106.048 69.6059 106.048C69.4459 106.048 69.1899 106.08 68.8379 106.144L65.4779 102.832C67.6219 102.608 69.2539 102.576 70.3739 102.736C71.9099 102.96 73.0939 103.808 73.9259 105.28ZM101.896 126.832C101.64 126.416 101.448 125.904 101.32 125.296C101.32 124.048 101.72 123.104 102.52 122.464C102.872 122.176 103.688 122 104.968 121.936C105.768 121.904 106.472 122.256 107.08 122.992C107.72 123.696 108.04 124.448 108.04 125.248C108.04 126.528 107.576 127.616 106.648 128.512C105.752 129.408 104.664 129.856 103.384 129.856C101.784 129.856 100.456 129.424 99.3996 128.56C96.2636 125.968 94.6956 122.304 94.6956 117.568C94.6956 112.576 96.3756 108.496 99.7356 105.328C101.56 103.6 103.48 102.736 105.496 102.736L108.76 106C105.88 106.288 103.544 107.344 101.752 109.168C99.2556 111.728 98.0076 115.008 98.0076 119.008C98.0076 119.808 98.1836 120.912 98.5356 122.32C99.1756 124.848 100.296 126.352 101.896 126.832ZM115.713 114.4C116.289 115.232 116.657 115.968 116.817 116.608C116.881 116.992 116.913 117.36 116.913 117.712C116.913 118.736 116.577 119.568 115.905 120.208C115.233 120.816 114.321 121.12 113.169 121.12C109.809 121.12 108.129 119.44 108.129 116.08C108.129 114.384 108.737 112.976 109.953 111.856C111.201 110.736 112.689 110.176 114.417 110.176C117.521 110.176 120.161 112.096 122.337 115.936L122.625 116.464V106.096H106.544L103.184 102.736H129.297L132.801 106.096H125.985V132.112L124.065 129.616C124.129 129.392 124.161 129.12 124.161 128.8C124.161 127.584 123.857 125.968 123.249 123.952C122.769 122.128 122.225 120.624 121.617 119.44C121.041 118.224 120.257 117.152 119.265 116.224C118.081 115.104 116.897 114.496 115.713 114.4ZM150.716 126.016C149.308 127.136 147.596 127.696 145.58 127.696C143.692 127.696 141.996 127.2 140.492 126.208C139.596 125.6 138.428 124.544 136.988 123.04C134.332 120.256 131.756 114.384 129.26 105.424L132.044 106.912C132.172 107.232 132.412 107.872 132.764 108.832L132.956 109.408C133.724 111.488 135.052 114.144 136.94 117.376C137.708 118.752 138.94 120.032 140.636 121.216C142.364 122.4 143.948 122.992 145.388 122.992C146.508 122.992 147.516 122.736 148.412 122.224C149.436 121.648 150.028 120.848 150.188 119.824C150.348 118.896 150.06 118.096 149.324 117.424C148.684 117.968 147.948 118.24 147.116 118.24C146.124 118.24 145.292 117.92 144.62 117.28C143.98 116.64 143.66 115.84 143.66 114.88C143.66 113.952 143.98 113.136 144.62 112.432C145.26 111.696 146.044 111.328 146.972 111.328C147.708 111.328 148.364 111.488 148.94 111.808C149.772 111.296 150.188 110.592 150.188 109.696C150.188 108 149.372 107.152 147.74 107.152C146.556 107.152 145.564 107.344 144.764 107.728C144.732 107.728 143.932 108.224 142.364 109.216C141.98 109.504 141.676 109.808 141.452 110.128C142.348 110.864 142.796 111.936 142.796 113.344C142.796 114.912 141.804 115.696 139.82 115.696C137.228 115.696 135.948 114.352 135.98 111.664C136.012 109.04 137.596 106.896 140.732 105.232C142.588 104.272 144.476 103.792 146.396 103.792C148.028 103.792 149.42 104.192 150.572 104.992C152.076 106.016 152.828 107.52 152.828 109.504C152.828 110.4 152.668 111.472 152.348 112.72C152.028 113.936 151.628 114.848 151.148 115.456C152.492 117.28 153.164 119.04 153.164 120.736C153.164 122.944 152.348 124.704 150.716 126.016ZM173.134 106.096V131.632L171.262 129.568C170.462 127.904 169.918 126.848 169.63 126.4C169.086 125.504 168.334 124.592 167.374 123.664C166.094 122.416 164.894 121.584 163.774 121.168C162.814 120.816 161.374 120.592 159.454 120.496L155.854 115.888C157.71 114.032 159.31 112.56 160.654 111.472C160.942 111.248 161.678 110.672 162.862 109.744C162.638 109.488 162.478 109.344 162.382 109.312C161.806 108.992 160.414 108.624 158.206 108.208C156.51 107.92 155.246 107.2 154.414 106.048L151.102 102.736H176.59L180.094 106.096H173.134ZM163.15 129.184C162.254 129.184 161.502 128.88 160.894 128.272C160.286 127.632 159.982 126.896 159.982 126.064C159.982 125.264 160.254 124.576 160.798 124C161.374 123.424 162.062 123.136 162.862 123.136C163.758 123.136 164.51 123.44 165.118 124.048C165.726 124.656 166.03 125.36 166.03 126.16C166.03 126.96 165.742 127.664 165.166 128.272C164.622 128.88 163.95 129.184 163.15 129.184ZM169.774 106.096H163.006C163.422 106.416 163.854 106.752 164.302 107.104C164.558 107.36 165.758 108.736 167.902 111.232C167.102 112.16 166.158 113.072 165.07 113.968C164.558 114.416 163.662 115.36 162.382 116.8C165.326 117.888 167.79 119.792 169.774 122.512V106.096ZM179.863 105.28C179.607 103.04 179.479 100.576 179.479 97.888L181.351 99.424C181.511 100.448 181.735 101.312 182.023 102.016C182.151 102.208 182.327 102.448 182.551 102.736H186.151L189.511 106.096H182.839V132.064L179.575 128.512V110.32C179.575 109.36 179.383 108.608 178.999 108.064C178.071 106.72 176.919 106.048 175.543 106.048C175.383 106.048 175.127 106.08 174.775 106.144L171.415 102.832C173.559 102.608 175.191 102.576 176.311 102.736C177.847 102.96 179.031 103.808 179.863 105.28ZM193.215 130.672L193.023 130.72C192.863 130.752 192.399 130.8 191.631 130.864C189.615 130.672 188.607 129.728 188.607 128.032C188.607 125.792 189.727 124.672 191.967 124.672C194.815 124.672 196.239 126.4 196.239 129.856C196.239 131.296 195.615 132.768 194.367 134.272C193.151 135.776 191.727 136.848 190.095 137.488L189.279 135.664C190.431 135.12 191.391 134.4 192.159 133.504C193.023 132.48 193.375 131.584 193.215 130.816C193.215 130.784 193.215 130.736 193.215 130.672ZM232.724 126.832C232.468 126.416 232.276 125.904 232.148 125.296C232.148 124.048 232.548 123.104 233.348 122.464C233.7 122.176 234.516 122 235.796 121.936C236.596 121.904 237.3 122.256 237.908 122.992C238.548 123.696 238.868 124.448 238.868 125.248C238.868 126.528 238.404 127.616 237.476 128.512C236.58 129.408 235.492 129.856 234.212 129.856C232.612 129.856 231.284 129.424 230.228 128.56C227.092 125.968 225.524 122.304 225.524 117.568C225.524 112.576 227.204 108.496 230.564 105.328C232.388 103.6 234.308 102.736 236.324 102.736L239.588 106C236.708 106.288 234.372 107.344 232.58 109.168C230.084 111.728 228.836 115.008 228.836 119.008C228.836 119.808 229.012 120.912 229.364 122.32C230.004 124.848 231.124 126.352 232.724 126.832ZM243.661 106.096V114.784C244.429 114.08 245.581 113.072 247.117 111.76C248.781 110.416 251.085 109.168 254.029 108.016L258.733 111.52C256.493 115.84 255.373 119.664 255.373 122.992C255.373 123.696 255.421 124.416 255.517 125.152C255.485 125.504 255.773 127.504 256.381 131.152L253.693 129.808C252.733 125.328 252.253 121.936 252.253 119.632C252.253 117.744 252.429 115.904 252.781 114.112C248.685 115.776 245.757 118.912 243.997 123.52L240.109 119.536V106.096H237.949L234.541 102.736H260.413L263.821 106.096H243.661ZM281.919 126.016C280.511 127.136 278.799 127.696 276.783 127.696C274.895 127.696 273.199 127.2 271.695 126.208C270.799 125.6 269.631 124.544 268.191 123.04C265.535 120.256 262.959 114.384 260.463 105.424L263.247 106.912C263.375 107.232 263.615 107.872 263.967 108.832L264.159 109.408C264.927 111.488 266.255 114.144 268.143 117.376C268.911 118.752 270.143 120.032 271.839 121.216C273.567 122.4 275.151 122.992 276.591 122.992C277.711 122.992 278.719 122.736 279.615 122.224C280.639 121.648 281.231 120.848 281.391 119.824C281.551 118.896 281.263 118.096 280.527 117.424C279.887 117.968 279.151 118.24 278.319 118.24C277.327 118.24 276.495 117.92 275.823 117.28C275.183 116.64 274.863 115.84 274.863 114.88C274.863 113.952 275.183 113.136 275.823 112.432C276.463 111.696 277.247 111.328 278.175 111.328C278.911 111.328 279.567 111.488 280.143 111.808C280.975 111.296 281.391 110.592 281.391 109.696C281.391 108 280.575 107.152 278.943 107.152C277.759 107.152 276.767 107.344 275.967 107.728C275.935 107.728 275.135 108.224 273.567 109.216C273.183 109.504 272.879 109.808 272.655 110.128C273.551 110.864 273.999 111.936 273.999 113.344C273.999 114.912 273.007 115.696 271.023 115.696C268.431 115.696 267.151 114.352 267.183 111.664C267.215 109.04 268.799 106.896 271.935 105.232C273.791 104.272 275.679 103.792 277.599 103.792C279.231 103.792 280.623 104.192 281.775 104.992C283.279 106.016 284.031 107.52 284.031 109.504C284.031 110.4 283.871 111.472 283.551 112.72C283.231 113.936 282.831 114.848 282.351 115.456C283.695 117.28 284.367 119.04 284.367 120.736C284.367 122.944 283.551 124.704 281.919 126.016ZM304.337 106.096V131.632L302.465 129.568C301.665 127.904 301.121 126.848 300.833 126.4C300.289 125.504 299.537 124.592 298.577 123.664C297.297 122.416 296.097 121.584 294.977 121.168C294.017 120.816 292.577 120.592 290.657 120.496L287.057 115.888C288.913 114.032 290.513 112.56 291.857 111.472C292.145 111.248 292.881 110.672 294.065 109.744C293.841 109.488 293.681 109.344 293.585 109.312C293.009 108.992 291.617 108.624 289.409 108.208C287.713 107.92 286.449 107.2 285.617 106.048L282.305 102.736H307.793L311.297 106.096H304.337ZM294.353 129.184C293.457 129.184 292.705 128.88 292.097 128.272C291.489 127.632 291.185 126.896 291.185 126.064C291.185 125.264 291.457 124.576 292.001 124C292.577 123.424 293.265 123.136 294.065 123.136C294.961 123.136 295.713 123.44 296.321 124.048C296.929 124.656 297.233 125.36 297.233 126.16C297.233 126.96 296.945 127.664 296.369 128.272C295.825 128.88 295.153 129.184 294.353 129.184ZM300.977 106.096H294.209C294.625 106.416 295.057 106.752 295.505 107.104C295.761 107.36 296.961 108.736 299.105 111.232C298.305 112.16 297.361 113.072 296.273 113.968C295.761 114.416 294.865 115.36 293.585 116.8C296.529 117.888 298.993 119.792 300.977 122.512V106.096ZM311.067 105.28C310.811 103.04 310.683 100.576 310.683 97.888L312.555 99.424C312.715 100.448 312.939 101.312 313.227 102.016C313.355 102.208 313.531 102.448 313.755 102.736H317.355L320.715 106.096H314.043V132.064L310.779 128.512V110.32C310.779 109.36 310.587 108.608 310.203 108.064C309.275 106.72 308.123 106.048 306.746 106.048C306.586 106.048 306.33 106.08 305.979 106.144L302.618 102.832C304.762 102.608 306.394 102.576 307.514 102.736C309.051 102.96 310.235 103.808 311.067 105.28ZM324.418 130.672L324.226 130.72C324.066 130.752 323.602 130.8 322.834 130.864C320.818 130.672 319.81 129.728 319.81 128.032C319.81 125.792 320.93 124.672 323.17 124.672C326.018 124.672 327.442 126.4 327.442 129.856C327.442 131.296 326.818 132.768 325.57 134.272C324.354 135.776 322.93 136.848 321.298 137.488L320.482 135.664C321.634 135.12 322.594 134.4 323.362 133.504C324.226 132.48 324.578 131.584 324.418 130.816C324.418 130.784 324.418 130.736 324.418 130.672ZM375.639 97.936C373.271 96.144 370.567 95.248 367.527 95.248C365.863 95.248 364.039 95.904 362.055 97.216C361.607 97.664 361.079 98.304 360.471 99.136C359.767 100.096 359.431 100.72 359.463 101.008L360.279 102.736H364.599L367.959 106.096H361.239V131.056L357.831 127.792L357.879 106.096H354.615L351.255 102.736H357.495C357.079 102.32 356.663 101.888 356.247 101.44C355.863 100.96 355.671 100.432 355.671 99.856C355.703 98.896 355.879 98.144 356.199 97.6C357.095 96.16 357.911 95.104 358.647 94.432C359.383 93.728 360.503 93.024 362.007 92.32C362.935 91.872 364.039 91.648 365.319 91.648C368.487 91.648 371.863 92.752 375.447 94.96C376.567 95.664 378.055 96.96 379.911 98.848L380.967 101.968L375.639 97.936ZM382.38 106.096V131.968L380.22 128.848C377.884 123.024 373.836 119.888 368.076 119.44L364.572 114.496C367.164 112.608 369.276 111.248 370.908 110.416C373.948 108.88 376.668 107.712 379.068 106.912V106.096H363.851L360.539 102.736H385.644L388.956 106.096H382.38ZM379.068 111.76C376.636 112.688 374.044 114.032 371.292 115.792C374.556 117.36 377.148 119.472 379.068 122.128V111.76ZM406.108 97.936C403.74 96.144 401.036 95.248 397.996 95.248C396.332 95.248 394.508 95.904 392.524 97.216C392.076 97.664 391.548 98.304 390.94 99.136C390.236 100.096 389.9 100.72 389.932 101.008L390.748 102.736H395.068L398.428 106.096H391.708V131.056L388.3 127.792L388.348 106.096H385.084L381.724 102.736H387.964C387.548 102.32 387.132 101.888 386.716 101.44C386.332 100.96 386.14 100.432 386.14 99.856C386.172 98.896 386.348 98.144 386.668 97.6C387.564 96.16 388.38 95.104 389.116 94.432C389.852 93.728 390.972 93.024 392.476 92.32C393.404 91.872 394.508 91.648 395.788 91.648C398.956 91.648 402.332 92.752 405.916 94.96C407.036 95.664 408.524 96.96 410.38 98.848L411.436 101.968L406.108 97.936ZM394.464 106.096L391.056 102.736H428.064L431.28 106.096H394.464ZM427.008 120.256C426.464 121.184 425.856 121.696 425.184 121.792C424.768 121.952 424.272 122.032 423.696 122.032C421.936 122.032 420.816 121.472 420.336 120.352C420.048 119.904 419.904 119.44 419.904 118.96C419.904 118.352 420.16 117.792 420.672 117.28C421.216 116.768 421.792 116.512 422.4 116.512C422.56 116.512 422.688 116.528 422.784 116.56C423.552 116.592 424.24 116.976 424.848 117.712C425.008 117.04 424.752 116.384 424.08 115.744C423.664 115.36 423.2 115.136 422.688 115.072C422.336 114.944 422 114.88 421.68 114.88C420.336 114.88 419.232 115.6 418.368 117.04V131.824L415.968 129.664C415.776 128.928 415.36 127.984 414.72 126.832C414.176 126.256 413.408 125.968 412.416 125.968C411.552 125.968 410.128 126.192 408.144 126.64C406.288 127.024 404.832 127.168 403.776 127.072C398.496 126.592 395.856 123.552 395.856 117.952C395.856 116.8 396 115.712 396.288 114.688L397.008 112.432C397.328 111.568 397.696 111.136 398.112 111.136C398.368 111.136 398.576 111.264 398.736 111.52L399.936 112.768C399.328 113.536 398.944 114.176 398.784 114.688C398.624 115.168 398.528 115.936 398.496 116.992C398.4 119.648 399.6 121.28 402.096 121.888C403.92 122.336 405.616 122.48 407.184 122.32C408.176 122.224 409.024 122.176 409.728 122.176C412.032 122.176 413.792 122.592 415.008 123.424V111.04C415.008 110.176 414.656 109.744 413.952 109.744C413.248 109.744 412.128 110.464 410.592 111.904C409.76 112.704 409.104 113.584 408.624 114.544C408.816 114.512 408.976 114.496 409.104 114.496C409.904 114.496 410.512 114.816 410.928 115.456C411.376 116.096 411.6 116.816 411.6 117.616C411.6 118.352 411.344 119.056 410.832 119.728C410.352 120.368 409.76 120.736 409.056 120.832C408.768 120.864 408.416 120.88 408 120.88C405.984 120.88 404.64 120.128 403.968 118.624C403.744 118.144 403.568 117.28 403.44 116.032C403.344 115.168 403.568 114.176 404.112 113.056C404.688 111.904 405.312 111.024 405.984 110.416C409.536 107.376 412.208 105.968 414 106.192C414.8 106.288 415.728 106.816 416.784 107.776C417.84 108.704 418.368 109.552 418.368 110.32V113.488C419.968 112.304 421.44 111.712 422.784 111.712C424.096 111.712 425.264 112.24 426.288 113.296C427.312 114.32 427.808 115.488 427.776 116.8C427.84 117.056 427.872 117.328 427.872 117.616C427.872 118.448 427.584 119.328 427.008 120.256Z" fill="#0B0F18"/>
<path d="M514.489 126.832C514.233 126.416 514.041 125.904 513.913 125.296C513.913 124.048 514.313 123.104 515.113 122.464C515.465 122.176 516.281 122 517.561 121.936C518.361 121.904 519.065 122.256 519.673 122.992C520.313 123.696 520.633 124.448 520.633 125.248C520.633 126.528 520.169 127.616 519.241 128.512C518.345 129.408 517.257 129.856 515.977 129.856C514.377 129.856 513.049 129.424 511.993 128.56C508.857 125.968 507.289 122.304 507.289 117.568C507.289 112.576 508.969 108.496 512.329 105.328C514.153 103.6 516.073 102.736 518.089 102.736L521.353 106C518.473 106.288 516.137 107.344 514.345 109.168C511.849 111.728 510.601 115.008 510.601 119.008C510.601 119.808 510.777 120.912 511.129 122.32C511.769 124.848 512.889 126.352 514.489 126.832ZM537.09 106.096V106.864C539.074 106.864 540.946 107.712 542.706 109.408C544.338 111.008 545.378 112.816 545.826 114.832C545.986 115.6 546.066 116.304 546.066 116.944C546.066 118.288 545.682 119.456 544.914 120.448C544.082 121.536 543.01 122.08 541.698 122.08C540.77 122.08 539.938 121.744 539.202 121.072C538.466 120.4 538.098 119.6 538.098 118.672C538.098 117.616 538.626 116.656 539.682 115.792C540.29 115.6 540.834 115.504 541.314 115.504C542.242 115.504 543.138 115.92 544.002 116.752C544.162 116.88 544.242 117.024 544.242 117.184C544.274 117.536 543.858 117.712 542.994 117.712C543.218 117.264 543.33 116.96 543.33 116.8C543.33 115.456 542.754 114.208 541.602 113.056C540.29 111.744 538.77 111.104 537.042 111.136V131.008L535.266 129.232C534.754 127.696 534.402 126.752 534.21 126.4C533.89 125.696 533.314 124.848 532.482 123.856C531.458 122.64 530.53 121.776 529.698 121.264C527.874 120.144 525.922 119.456 523.842 119.2L520.098 114.64C524.194 111.28 528.77 108.784 533.826 107.152V106.096H519.426L516.018 102.736H547.266L550.578 106.096H537.09ZM528.93 113.776C528.578 114.032 527.794 114.592 526.578 115.456C529.618 116.896 532.002 118.944 533.73 121.6V111.472C531.682 112.272 530.082 113.04 528.93 113.776ZM555.728 114.4C556.304 115.232 556.672 115.968 556.832 116.608C556.896 116.992 556.928 117.36 556.928 117.712C556.928 118.736 556.592 119.568 555.92 120.208C555.248 120.816 554.336 121.12 553.184 121.12C549.824 121.12 548.144 119.44 548.144 116.08C548.144 114.384 548.752 112.976 549.968 111.856C551.216 110.736 552.704 110.176 554.432 110.176C557.536 110.176 560.176 112.096 562.352 115.936L562.64 116.464V106.096H546.56L543.2 102.736H569.312L572.816 106.096H566V132.112L564.08 129.616C564.144 129.392 564.176 129.12 564.176 128.8C564.176 127.584 563.872 125.968 563.264 123.952C562.784 122.128 562.24 120.624 561.632 119.44C561.056 118.224 560.272 117.152 559.28 116.224C558.096 115.104 556.912 114.496 555.728 114.4ZM572.348 105.28C572.092 103.04 571.964 100.576 571.964 97.888L573.836 99.424C573.996 100.448 574.22 101.312 574.508 102.016C574.636 102.208 574.812 102.448 575.036 102.736H578.636L581.996 106.096H575.324V132.064L572.06 128.512V110.32C572.06 109.36 571.868 108.608 571.484 108.064C570.556 106.72 569.404 106.048 568.028 106.048C567.868 106.048 567.612 106.08 567.26 106.144L563.9 102.832C566.044 102.608 567.676 102.576 568.796 102.736C570.332 102.96 571.516 103.808 572.348 105.28ZM596.163 106.096V131.056L594.387 129.376C592.819 126.528 591.955 124.976 591.795 124.72C590.803 123.216 589.523 122 587.955 121.072C586.099 119.952 584.083 119.328 581.907 119.2L578.355 114.352C583.347 110.8 588.163 108.304 592.803 106.864V106.096H578.403L574.995 102.736H599.043L602.451 106.096H596.163ZM586.563 128.464C585.699 128.464 584.963 128.16 584.355 127.552C583.779 126.912 583.491 126.192 583.491 125.392C583.491 124.624 583.763 123.968 584.307 123.424C584.851 122.848 585.507 122.56 586.275 122.56C586.947 122.56 587.571 122.784 588.147 123.232C588.723 123.68 589.091 124.24 589.251 124.912C589.443 125.776 589.267 126.592 588.723 127.36C588.179 128.096 587.459 128.464 586.563 128.464ZM592.803 111.424C590.019 112.416 587.395 113.792 584.931 115.552C588.387 117.12 591.011 119.328 592.803 122.176V111.424Z" fill="black"/>
<defs>
<radialGradient id="paint0_radial" cx="0" cy="0" r="1" gradientUnits="userSpaceOnUse" gradientTransform="translate(104.213 114.402) rotate(87.6547) scale(33.2123 102.99)">
<stop stop-color="#FFB81F"/>
<stop offset="1" stop-color="#FFD715"/>
</radialGradient>
<linearGradient id="paint1_linear" x1="276.892" y1="76.7678" x2="273.919" y2="145.824" gradientUnits="userSpaceOnUse">
<stop stop-color="#FFD715"/>
<stop offset="1" stop-color="#FFB81F"/>
</linearGradient>
<linearGradient id="paint2_linear" x1="507.71" y1="153.825" x2="588.98" y2="86.3611" gradientUnits="userSpaceOnUse">
<stop stop-color="#FFD715"/>
<stop offset="1" stop-color="#FFB81F"/>
</linearGradient>
<radialGradient id="paint3_radial" cx="0" cy="0" r="1" gradientUnits="userSpaceOnUse" gradientTransform="translate(391.967 110.939) rotate(-147.408) scale(45.3769 77.5215)">
<stop stop-color="#FFB81F"/>
<stop offset="1" stop-color="#FFD715"/>
</radialGradient>
</defs>
</svg>
