<svg width="676" height="222" viewBox="0 0 676 222" fill="none" xmlns="http://www.w3.org/2000/svg">
<path d="M66.7704 97.1882C66.409 89.2773 66.2282 85.3218 68.613 82.8246C70.9978 80.3273 74.9559 80.3273 82.8722 80.3273L102.5 80.3273L144.972 85.1471C145.91 85.2536 146.379 85.3069 146.851 85.3045C147.323 85.3022 147.792 85.2442 148.731 85.1283L170.558 82.4351C178.558 81.4479 182.559 80.9543 185.208 83.1966C187.858 85.439 188.029 89.4638 188.373 97.5134L189.368 120.829C189.677 128.055 189.831 131.668 187.717 134.097C185.604 136.525 182.003 136.873 174.801 137.568L152.485 139.722C151.869 139.781 151.561 139.811 151.252 139.817C150.943 139.823 150.635 139.805 150.018 139.769L109.024 137.378C108.285 137.335 107.916 137.313 107.546 137.326C107.176 137.339 106.809 137.385 106.073 137.479L85.9166 140.045C77.9133 141.064 73.9116 141.573 71.253 139.338C68.5943 137.104 68.4103 133.077 68.0423 125.022L66.7704 97.1882Z" fill="url(#paint0_radial)"/>
<path d="M202.871 93.9354C202.871 86.3421 202.871 82.5455 205.237 80.1812C207.603 77.8169 211.402 77.8169 219.001 77.8169L240.266 77.817C240.857 77.817 241.152 77.817 241.446 77.8387C241.74 77.8604 242.032 77.9037 242.616 77.9905L284.359 84.1924C285.066 84.2974 285.42 84.3499 285.776 84.3707C286.133 84.3915 286.491 84.3804 287.206 84.3582L309.649 83.6615C317.707 83.4114 321.736 83.2864 324.168 85.762C326.601 88.2377 326.404 92.2613 326.008 100.308L324.867 123.549C324.51 130.803 324.332 134.429 321.993 136.656C319.653 138.883 316.021 138.883 308.756 138.883L285.774 138.883L263 136.5L237.5 136.5L219.852 137.714C211.89 138.262 207.909 138.536 205.39 136.188C202.871 133.839 202.871 129.853 202.871 121.882L202.871 93.9354Z" fill="url(#paint1_linear)"/>
<path d="M347.343 92.9615C348.072 85.0775 348.437 81.1355 351.141 78.9897C353.846 76.8438 357.766 77.3867 365.605 78.4724L376.947 80.0433L413.312 79.9305L429.411 82.1602C436.524 83.1452 440.08 83.6378 442.054 86.1276C444.027 88.6175 443.697 92.1939 443.035 99.3467L441.033 121.004C440.225 129.741 439.821 134.109 436.779 136.257C433.737 138.404 429.493 137.318 421.004 135.146L411.215 132.641C409.987 132.327 409.373 132.17 408.744 132.111C408.115 132.053 407.481 132.094 406.213 132.176L375.203 134.189C374.61 134.228 374.314 134.247 374.017 134.244C373.721 134.242 373.425 134.217 372.834 134.168L359.722 133.075C352.197 132.447 348.434 132.134 346.312 129.602C344.189 127.071 344.537 123.311 345.232 115.792L347.343 92.9615Z" fill="url(#paint2_radial)"/>
<path d="M491.721 98.3558C490.918 90.0978 490.516 85.9688 492.918 83.3199C495.32 80.6711 499.466 80.6711 507.759 80.6711L520.5 80.6711L560.688 80.6711L576.843 80.6711C583.14 80.6711 586.288 80.6711 588.487 82.4947C590.687 84.3183 591.269 87.4116 592.434 93.5983L596.84 116.997C598.243 124.449 598.945 128.175 597.058 130.934C595.172 133.694 591.441 134.399 583.978 135.811L568.975 138.65C568.238 138.789 567.869 138.859 567.496 138.894C567.124 138.929 566.749 138.929 566 138.929L528.844 138.929L511.618 140.442C504.222 141.091 500.524 141.416 498.015 139.333C495.507 137.25 495.147 133.555 494.428 126.167L491.721 98.3558Z" fill="url(#paint3_linear)"/>
<path d="M31.392 45.632C28 48.992 23.872 50.672 19.008 50.672C14.144 50.672 10.016 48.992 6.624 45.632C3.264 42.24 1.584 38.096 1.584 33.2C1.584 28.304 3.264 24.176 6.624 20.816C10.016 17.424 14.144 15.728 19.008 15.728C23.872 15.728 28 17.424 31.392 20.816C34.784 24.176 36.48 28.304 36.48 33.2C36.48 38.096 34.784 42.24 31.392 45.632ZM11.28 41.12C13.36 43.168 15.936 44.192 19.008 44.192C22.08 44.192 24.656 43.168 26.736 41.12C28.816 39.04 29.856 36.4 29.856 33.2C29.856 30 28.816 27.36 26.736 25.28C24.656 23.2 22.08 22.16 19.008 22.16C15.936 22.16 13.36 23.2 11.28 25.28C9.2 27.36 8.16 30 8.16 33.2C8.16 36.4 9.2 39.04 11.28 41.12ZM54.1916 25.328C56.8156 25.328 58.9756 26.208 60.6716 27.968C62.3996 29.728 63.2636 32.16 63.2636 35.264V50H57.0716V36.032C57.0716 34.432 56.6396 33.216 55.7756 32.384C54.9116 31.52 53.7596 31.088 52.3196 31.088C50.7196 31.088 49.4396 31.584 48.4796 32.576C47.5196 33.568 47.0396 35.056 47.0396 37.04V50H40.8476V26H47.0396V28.688C48.5436 26.448 50.9276 25.328 54.1916 25.328ZM73.7828 40.544C74.6148 43.552 76.8708 45.056 80.5508 45.056C82.9188 45.056 84.7108 44.256 85.9268 42.656L90.9188 45.536C88.5508 48.96 85.0628 50.672 80.4548 50.672C76.4868 50.672 73.3028 49.472 70.9028 47.072C68.5028 44.672 67.3027 41.648 67.3027 38C67.3027 34.384 68.4868 31.376 70.8548 28.976C73.2228 26.544 76.2628 25.328 79.9748 25.328C83.4948 25.328 86.3908 26.544 88.6628 28.976C90.9668 31.408 92.1188 34.416 92.1188 38C92.1188 38.8 92.0388 39.648 91.8788 40.544H73.7828ZM73.6868 35.744H85.9268C85.5748 34.112 84.8388 32.896 83.7188 32.096C82.6308 31.296 81.3828 30.896 79.9748 30.896C78.3108 30.896 76.9348 31.328 75.8468 32.192C74.7588 33.024 74.0388 34.208 73.6868 35.744ZM128.889 47.024C126.425 49.456 123.417 50.672 119.865 50.672C116.313 50.672 113.305 49.456 110.841 47.024C108.409 44.56 107.193 41.552 107.193 38C107.193 34.448 108.409 31.456 110.841 29.024C113.305 26.56 116.313 25.328 119.865 25.328C123.417 25.328 126.425 26.56 128.889 29.024C131.353 31.456 132.585 34.448 132.585 38C132.585 41.552 131.353 44.56 128.889 47.024ZM115.209 42.752C116.457 44 118.009 44.624 119.865 44.624C121.721 44.624 123.273 44 124.521 42.752C125.769 41.504 126.393 39.92 126.393 38C126.393 36.08 125.769 34.496 124.521 33.248C123.273 32 121.721 31.376 119.865 31.376C118.009 31.376 116.457 32 115.209 33.248C113.993 34.496 113.385 36.08 113.385 38C113.385 39.92 113.993 41.504 115.209 42.752ZM149.103 21.68C145.711 21.424 144.015 22.784 144.015 25.76V26H149.103V31.952H144.015V50H137.823V31.952H134.367V26H137.823V25.76C137.823 22.368 138.767 19.792 140.655 18.032C142.543 16.272 145.359 15.504 149.103 15.728V21.68ZM177.669 31.952H172.245V41.936C172.245 42.768 172.453 43.376 172.869 43.76C173.285 44.144 173.893 44.368 174.693 44.432C175.493 44.464 176.485 44.448 177.669 44.384V50C173.413 50.48 170.405 50.08 168.645 48.8C166.917 47.52 166.053 45.232 166.053 41.936V31.952H161.877V26H166.053V21.152L172.245 19.28V26H177.669V31.952ZM188.602 30.128C189.178 28.592 190.122 27.44 191.434 26.672C192.778 25.904 194.266 25.52 195.898 25.52V32.432C194.01 32.208 192.314 32.592 190.81 33.584C189.338 34.576 188.602 36.224 188.602 38.528V50H182.41V26H188.602V30.128ZM215.36 26H221.552V50H215.36V47.312C213.856 49.552 211.472 50.672 208.208 50.672C205.584 50.672 203.408 49.792 201.68 48.032C199.984 46.272 199.136 43.84 199.136 40.736V26H205.328V39.968C205.328 41.568 205.76 42.8 206.624 43.664C207.488 44.496 208.64 44.912 210.08 44.912C211.68 44.912 212.96 44.416 213.92 43.424C214.88 42.432 215.36 40.944 215.36 38.96V26ZM232.747 32.816C232.747 33.456 233.163 33.984 233.995 34.4C234.859 34.784 235.899 35.136 237.115 35.456C238.331 35.744 239.547 36.128 240.763 36.608C241.979 37.056 243.003 37.824 243.835 38.912C244.699 40 245.131 41.36 245.131 42.992C245.131 45.456 244.203 47.36 242.347 48.704C240.523 50.016 238.235 50.672 235.483 50.672C230.555 50.672 227.195 48.768 225.403 44.96L230.779 41.936C231.483 44.016 233.051 45.056 235.483 45.056C237.691 45.056 238.795 44.368 238.795 42.992C238.795 42.352 238.363 41.84 237.499 41.456C236.667 41.04 235.643 40.672 234.427 40.352C233.211 40.032 231.995 39.632 230.779 39.152C229.563 38.672 228.523 37.92 227.659 36.896C226.827 35.84 226.411 34.528 226.411 32.96C226.411 30.592 227.275 28.736 229.003 27.392C230.763 26.016 232.939 25.328 235.531 25.328C237.483 25.328 239.259 25.776 240.859 26.672C242.459 27.536 243.723 28.784 244.651 30.416L239.371 33.296C238.603 31.664 237.323 30.848 235.531 30.848C234.731 30.848 234.059 31.024 233.515 31.376C233.003 31.728 232.747 32.208 232.747 32.816ZM262.138 31.952H256.714V41.936C256.714 42.768 256.922 43.376 257.338 43.76C257.754 44.144 258.362 44.368 259.162 44.432C259.962 44.464 260.954 44.448 262.138 44.384V50C257.882 50.48 254.874 50.08 253.114 48.8C251.386 47.52 250.522 45.232 250.522 41.936V31.952H246.346V26H250.522V21.152L256.714 19.28V26H262.138V31.952ZM270.986 40.544C271.818 43.552 274.074 45.056 277.754 45.056C280.122 45.056 281.914 44.256 283.13 42.656L288.122 45.536C285.754 48.96 282.266 50.672 277.658 50.672C273.69 50.672 270.506 49.472 268.106 47.072C265.706 44.672 264.506 41.648 264.506 38C264.506 34.384 265.69 31.376 268.058 28.976C270.426 26.544 273.466 25.328 277.178 25.328C280.698 25.328 283.594 26.544 285.866 28.976C288.17 31.408 289.322 34.416 289.322 38C289.322 38.8 289.242 39.648 289.082 40.544H270.986ZM270.89 35.744H283.13C282.778 34.112 282.042 32.896 280.922 32.096C279.834 31.296 278.586 30.896 277.178 30.896C275.514 30.896 274.138 31.328 273.05 32.192C271.962 33.024 271.242 34.208 270.89 35.744ZM311.649 16.4H317.841V50H311.649V47.168C309.825 49.504 307.233 50.672 303.873 50.672C300.641 50.672 297.873 49.456 295.569 47.024C293.297 44.56 292.161 41.552 292.161 38C292.161 34.448 293.297 31.456 295.569 29.024C297.873 26.56 300.641 25.328 303.873 25.328C307.233 25.328 309.825 26.496 311.649 28.832V16.4ZM300.225 42.896C301.505 44.144 303.105 44.768 305.025 44.768C306.945 44.768 308.529 44.144 309.777 42.896C311.025 41.616 311.649 39.984 311.649 38C311.649 36.016 311.025 34.4 309.777 33.152C308.529 31.872 306.945 31.232 305.025 31.232C303.105 31.232 301.505 31.872 300.225 33.152C298.977 34.4 298.353 36.016 298.353 38C298.353 39.984 298.977 41.616 300.225 42.896ZM349.472 25.328C352.704 25.328 355.456 26.56 357.728 29.024C360.032 31.456 361.184 34.448 361.184 38C361.184 41.552 360.032 44.56 357.728 47.024C355.456 49.456 352.704 50.672 349.472 50.672C346.112 50.672 343.52 49.504 341.696 47.168V59.6H335.504V26H341.696V28.832C343.52 26.496 346.112 25.328 349.472 25.328ZM343.568 42.896C344.816 44.144 346.4 44.768 348.32 44.768C350.24 44.768 351.824 44.144 353.072 42.896C354.352 41.616 354.992 39.984 354.992 38C354.992 36.016 354.352 34.4 353.072 33.152C351.824 31.872 350.24 31.232 348.32 31.232C346.4 31.232 344.816 31.872 343.568 33.152C342.32 34.4 341.696 36.016 341.696 38C341.696 39.984 342.32 41.616 343.568 42.896ZM365.551 50V14.96H371.743V50H365.551ZM395.65 26H401.842V50H395.65V47.168C393.794 49.504 391.186 50.672 387.826 50.672C384.626 50.672 381.874 49.456 379.57 47.024C377.298 44.56 376.162 41.552 376.162 38C376.162 34.448 377.298 31.456 379.57 29.024C381.874 26.56 384.626 25.328 387.826 25.328C391.186 25.328 393.794 26.496 395.65 28.832V26ZM384.226 42.896C385.474 44.144 387.058 44.768 388.978 44.768C390.898 44.768 392.482 44.144 393.73 42.896C395.01 41.616 395.65 39.984 395.65 38C395.65 36.016 395.01 34.4 393.73 33.152C392.482 31.872 390.898 31.232 388.978 31.232C387.058 31.232 385.474 31.872 384.226 33.152C382.978 34.4 382.354 36.016 382.354 38C382.354 39.984 382.978 41.616 384.226 42.896ZM421.185 31.952H415.761V41.936C415.761 42.768 415.969 43.376 416.385 43.76C416.801 44.144 417.409 44.368 418.209 44.432C419.009 44.464 420.001 44.448 421.185 44.384V50C416.929 50.48 413.921 50.08 412.161 48.8C410.433 47.52 409.569 45.232 409.569 41.936V31.952H405.393V26H409.569V21.152L415.761 19.28V26H421.185V31.952ZM437.291 21.68C433.899 21.424 432.203 22.784 432.203 25.76V26H437.291V31.952H432.203V50H426.011V31.952H422.555V26H426.011V25.76C426.011 22.368 426.955 19.792 428.843 18.032C430.731 16.272 433.547 15.504 437.291 15.728V21.68ZM459.686 47.024C457.222 49.456 454.214 50.672 450.662 50.672C447.11 50.672 444.102 49.456 441.638 47.024C439.206 44.56 437.99 41.552 437.99 38C437.99 34.448 439.206 31.456 441.638 29.024C444.102 26.56 447.11 25.328 450.662 25.328C454.214 25.328 457.222 26.56 459.686 29.024C462.15 31.456 463.382 34.448 463.382 38C463.382 41.552 462.15 44.56 459.686 47.024ZM446.006 42.752C447.254 44 448.806 44.624 450.662 44.624C452.518 44.624 454.07 44 455.318 42.752C456.566 41.504 457.19 39.92 457.19 38C457.19 36.08 456.566 34.496 455.318 33.248C454.07 32 452.518 31.376 450.662 31.376C448.806 31.376 447.254 32 446.006 33.248C444.79 34.496 444.182 36.08 444.182 38C444.182 39.92 444.79 41.504 446.006 42.752ZM473.93 30.128C474.506 28.592 475.45 27.44 476.762 26.672C478.106 25.904 479.594 25.52 481.226 25.52V32.432C479.338 32.208 477.642 32.592 476.138 33.584C474.666 34.576 473.93 36.224 473.93 38.528V50H467.738V26H473.93V30.128ZM511.392 25.328C514.144 25.328 516.336 26.224 517.968 28.016C519.632 29.808 520.464 32.208 520.464 35.216V50H514.272V35.648C514.272 34.208 513.92 33.088 513.216 32.288C512.512 31.488 511.52 31.088 510.24 31.088C508.832 31.088 507.728 31.552 506.928 32.48C506.16 33.408 505.776 34.752 505.776 36.512V50H499.584V35.648C499.584 34.208 499.232 33.088 498.528 32.288C497.824 31.488 496.832 31.088 495.552 31.088C494.176 31.088 493.072 31.552 492.24 32.48C491.44 33.408 491.04 34.752 491.04 36.512V50H484.848V26H491.04V28.544C492.48 26.4 494.704 25.328 497.712 25.328C500.656 25.328 502.832 26.48 504.24 28.784C505.84 26.48 508.224 25.328 511.392 25.328Z" fill="#FFFCEF"/>
<path d="M15.744 95.68C12.352 95.424 10.656 96.784 10.656 99.76V100H15.744V105.952H10.656V124H4.464V105.952H1.008V100H4.464V99.76C4.464 96.368 5.408 93.792 7.296 92.032C9.184 90.272 12 89.504 15.744 89.728V95.68ZM38.1394 121.024C35.6754 123.456 32.6674 124.672 29.1154 124.672C25.5634 124.672 22.5554 123.456 20.0914 121.024C17.6594 118.56 16.4434 115.552 16.4434 112C16.4434 108.448 17.6594 105.456 20.0914 103.024C22.5554 100.56 25.5634 99.328 29.1154 99.328C32.6674 99.328 35.6754 100.56 38.1394 103.024C40.6034 105.456 41.8354 108.448 41.8354 112C41.8354 115.552 40.6034 118.56 38.1394 121.024ZM24.4594 116.752C25.7074 118 27.2594 118.624 29.1154 118.624C30.9714 118.624 32.5234 118 33.7714 116.752C35.0194 115.504 35.6434 113.92 35.6434 112C35.6434 110.08 35.0194 108.496 33.7714 107.248C32.5234 106 30.9714 105.376 29.1154 105.376C27.2594 105.376 25.7074 106 24.4594 107.248C23.2434 108.496 22.6354 110.08 22.6354 112C22.6354 113.92 23.2434 115.504 24.4594 116.752ZM52.3834 104.128C52.9594 102.592 53.9034 101.44 55.2154 100.672C56.5594 99.904 58.0474 99.52 59.6794 99.52V106.432C57.7914 106.208 56.0954 106.592 54.5914 107.584C53.1194 108.576 52.3834 110.224 52.3834 112.528V124H46.1914V100H52.3834V104.128ZM478.718 122.08L473.438 125.104L470.366 121.792C467.774 123.712 464.766 124.672 461.342 124.672C457.886 124.672 455.054 123.776 452.846 121.984C450.67 120.16 449.582 117.728 449.582 114.688C449.582 112.704 450.062 110.864 451.022 109.168C451.982 107.472 453.374 106.096 455.198 105.04C454.11 103.312 453.566 101.44 453.566 99.424C453.566 96.576 454.558 94.256 456.542 92.464C458.526 90.64 461.038 89.728 464.078 89.728C466.478 89.728 468.622 90.352 470.51 91.6C472.43 92.816 473.854 94.592 474.782 96.928L469.118 100.192C468.19 97.504 466.542 96.16 464.174 96.16C463.022 96.16 462.062 96.496 461.294 97.168C460.558 97.84 460.19 98.688 460.19 99.712C460.19 100.608 460.398 101.424 460.814 102.16C461.262 102.896 461.966 103.776 462.926 104.8L470.126 112.672C470.83 111.168 471.374 109.312 471.758 107.104L477.326 110.272C476.718 112.864 475.742 115.216 474.398 117.328L478.718 122.08ZM461.774 118.576C463.438 118.576 464.926 118.176 466.238 117.376L458.99 109.504C458.926 109.44 458.894 109.392 458.894 109.36C457.134 110.448 456.254 112 456.254 114.016C456.254 115.392 456.718 116.496 457.646 117.328C458.606 118.16 459.982 118.576 461.774 118.576ZM21.216 174H27.264V196.848C27.264 200.56 26.032 203.392 23.568 205.344C21.136 207.296 18.192 208.272 14.736 208.272C12.144 208.272 9.856 207.776 7.872 206.784C5.92 205.792 4.416 204.336 3.36 202.416L8.64 199.392C9.856 201.632 11.952 202.752 14.928 202.752C16.88 202.752 18.416 202.24 19.536 201.216C20.656 200.192 21.216 198.736 21.216 196.848V194.256C19.392 196.688 16.832 197.904 13.536 197.904C10.144 197.904 7.296 196.72 4.992 194.352C2.72 191.952 1.584 189.04 1.584 185.616C1.584 182.224 2.736 179.328 5.04 176.928C7.344 174.528 10.176 173.328 13.536 173.328C16.832 173.328 19.392 174.544 21.216 176.976V174ZM9.648 190.368C10.928 191.584 12.544 192.192 14.496 192.192C16.448 192.192 18.048 191.584 19.296 190.368C20.576 189.12 21.216 187.536 21.216 185.616C21.216 183.728 20.576 182.176 19.296 180.96C18.048 179.712 16.448 179.088 14.496 179.088C12.544 179.088 10.928 179.712 9.648 180.96C8.4 182.176 7.776 183.728 7.776 185.616C7.776 187.536 8.4 189.12 9.648 190.368ZM51.1189 174H57.3109V198H51.1189V195.168C49.2629 197.504 46.6549 198.672 43.2949 198.672C40.0949 198.672 37.3429 197.456 35.0389 195.024C32.7669 192.56 31.6309 189.552 31.6309 186C31.6309 182.448 32.7669 179.456 35.0389 177.024C37.3429 174.56 40.0949 173.328 43.2949 173.328C46.6549 173.328 49.2629 174.496 51.1189 176.832V174ZM39.6949 190.896C40.9429 192.144 42.5269 192.768 44.4469 192.768C46.3669 192.768 47.9509 192.144 49.1989 190.896C50.4789 189.616 51.1189 187.984 51.1189 186C51.1189 184.016 50.4789 182.4 49.1989 181.152C47.9509 179.872 46.3669 179.232 44.4469 179.232C42.5269 179.232 40.9429 179.872 39.6949 181.152C38.4469 182.4 37.8229 184.016 37.8229 186C37.8229 187.984 38.4469 189.616 39.6949 190.896ZM89.4698 173.328C92.2218 173.328 94.4138 174.224 96.0458 176.016C97.7098 177.808 98.5418 180.208 98.5418 183.216V198H92.3498V183.648C92.3498 182.208 91.9978 181.088 91.2938 180.288C90.5898 179.488 89.5978 179.088 88.3177 179.088C86.9098 179.088 85.8058 179.552 85.0058 180.48C84.2378 181.408 83.8538 182.752 83.8538 184.512V198H77.6618V183.648C77.6618 182.208 77.3098 181.088 76.6058 180.288C75.9018 179.488 74.9098 179.088 73.6298 179.088C72.2538 179.088 71.1498 179.552 70.3178 180.48C69.5178 181.408 69.1178 182.752 69.1178 184.512V198H62.9258V174H69.1178V176.544C70.5578 174.4 72.7818 173.328 75.7898 173.328C78.7338 173.328 80.9098 174.48 82.3178 176.784C83.9178 174.48 86.3018 173.328 89.4698 173.328ZM106.873 171.12C105.849 171.12 104.953 170.752 104.185 170.016C103.449 169.248 103.081 168.352 103.081 167.328C103.081 166.304 103.449 165.408 104.185 164.64C104.953 163.872 105.849 163.488 106.873 163.488C107.929 163.488 108.825 163.872 109.561 164.64C110.329 165.408 110.713 166.304 110.713 167.328C110.713 168.352 110.329 169.248 109.561 170.016C108.825 170.752 107.929 171.12 106.873 171.12ZM103.801 198V174H109.993V198H103.801ZM129.004 173.328C131.628 173.328 133.788 174.208 135.484 175.968C137.212 177.728 138.076 180.16 138.076 183.264V198H131.884V184.032C131.884 182.432 131.452 181.216 130.588 180.384C129.724 179.52 128.572 179.088 127.132 179.088C125.532 179.088 124.252 179.584 123.292 180.576C122.332 181.568 121.852 183.056 121.852 185.04V198H115.66V174H121.852V176.688C123.356 174.448 125.74 173.328 129.004 173.328ZM161.747 174H167.795V196.848C167.795 200.56 166.563 203.392 164.099 205.344C161.667 207.296 158.723 208.272 155.267 208.272C152.675 208.272 150.387 207.776 148.403 206.784C146.451 205.792 144.947 204.336 143.891 202.416L149.171 199.392C150.387 201.632 152.483 202.752 155.459 202.752C157.411 202.752 158.947 202.24 160.067 201.216C161.187 200.192 161.747 198.736 161.747 196.848V194.256C159.923 196.688 157.363 197.904 154.067 197.904C150.675 197.904 147.827 196.72 145.523 194.352C143.251 191.952 142.115 189.04 142.115 185.616C142.115 182.224 143.267 179.328 145.571 176.928C147.875 174.528 150.707 173.328 154.067 173.328C157.363 173.328 159.923 174.544 161.747 176.976V174ZM150.179 190.368C151.459 191.584 153.075 192.192 155.027 192.192C156.979 192.192 158.579 191.584 159.827 190.368C161.107 189.12 161.747 187.536 161.747 185.616C161.747 183.728 161.107 182.176 159.827 180.96C158.579 179.712 156.979 179.088 155.027 179.088C153.075 179.088 151.459 179.712 150.179 180.96C148.931 182.176 148.307 183.728 148.307 185.616C148.307 187.536 148.931 189.12 150.179 190.368ZM199.378 173.328C202.61 173.328 205.362 174.56 207.634 177.024C209.938 179.456 211.09 182.448 211.09 186C211.09 189.552 209.938 192.56 207.634 195.024C205.362 197.456 202.61 198.672 199.378 198.672C196.018 198.672 193.426 197.504 191.602 195.168V207.6H185.41V174H191.602V176.832C193.426 174.496 196.018 173.328 199.378 173.328ZM193.474 190.896C194.722 192.144 196.306 192.768 198.226 192.768C200.146 192.768 201.73 192.144 202.978 190.896C204.258 189.616 204.898 187.984 204.898 186C204.898 184.016 204.258 182.4 202.978 181.152C201.73 179.872 200.146 179.232 198.226 179.232C196.306 179.232 194.722 179.872 193.474 181.152C192.226 182.4 191.602 184.016 191.602 186C191.602 187.984 192.226 189.616 193.474 190.896ZM221.649 178.128C222.225 176.592 223.169 175.44 224.481 174.672C225.825 173.904 227.313 173.52 228.945 173.52V180.432C227.057 180.208 225.361 180.592 223.857 181.584C222.385 182.576 221.649 184.224 221.649 186.528V198H215.457V174H221.649V178.128ZM252.124 195.024C249.66 197.456 246.652 198.672 243.1 198.672C239.548 198.672 236.54 197.456 234.076 195.024C231.644 192.56 230.428 189.552 230.428 186C230.428 182.448 231.644 179.456 234.076 177.024C236.54 174.56 239.548 173.328 243.1 173.328C246.652 173.328 249.66 174.56 252.124 177.024C254.588 179.456 255.82 182.448 255.82 186C255.82 189.552 254.588 192.56 252.124 195.024ZM238.444 190.752C239.692 192 241.244 192.624 243.1 192.624C244.956 192.624 246.508 192 247.756 190.752C249.004 189.504 249.628 187.92 249.628 186C249.628 184.08 249.004 182.496 247.756 181.248C246.508 180 244.956 179.376 243.1 179.376C241.244 179.376 239.692 180 238.444 181.248C237.228 182.496 236.62 184.08 236.62 186C236.62 187.92 237.228 189.504 238.444 190.752ZM278.368 164.4H284.56V198H278.368V195.168C276.544 197.504 273.952 198.672 270.592 198.672C267.36 198.672 264.592 197.456 262.288 195.024C260.016 192.56 258.88 189.552 258.88 186C258.88 182.448 260.016 179.456 262.288 177.024C264.592 174.56 267.36 173.328 270.592 173.328C273.952 173.328 276.544 174.496 278.368 176.832V164.4ZM266.944 190.896C268.224 192.144 269.824 192.768 271.744 192.768C273.664 192.768 275.248 192.144 276.496 190.896C277.744 189.616 278.368 187.984 278.368 186C278.368 184.016 277.744 182.4 276.496 181.152C275.248 179.872 273.664 179.232 271.744 179.232C269.824 179.232 268.224 179.872 266.944 181.152C265.696 182.4 265.072 184.016 265.072 186C265.072 187.984 265.696 189.616 266.944 190.896ZM306.063 174H312.255V198H306.063V195.312C304.559 197.552 302.175 198.672 298.911 198.672C296.287 198.672 294.111 197.792 292.383 196.032C290.687 194.272 289.839 191.84 289.839 188.736V174H296.031V187.968C296.031 189.568 296.463 190.8 297.327 191.664C298.191 192.496 299.343 192.912 300.783 192.912C302.383 192.912 303.663 192.416 304.623 191.424C305.583 190.432 306.063 188.944 306.063 186.96V174ZM329.35 198.672C325.734 198.672 322.71 197.456 320.278 195.024C317.878 192.592 316.678 189.584 316.678 186C316.678 182.416 317.878 179.408 320.278 176.976C322.71 174.544 325.734 173.328 329.35 173.328C331.686 173.328 333.814 173.888 335.734 175.008C337.654 176.128 339.11 177.632 340.102 179.52L334.774 182.64C334.294 181.648 333.558 180.864 332.566 180.288C331.606 179.712 330.518 179.424 329.302 179.424C327.446 179.424 325.91 180.048 324.694 181.296C323.478 182.512 322.87 184.08 322.87 186C322.87 187.888 323.478 189.456 324.694 190.704C325.91 191.92 327.446 192.528 329.302 192.528C330.55 192.528 331.654 192.256 332.614 191.712C333.606 191.136 334.342 190.352 334.822 189.36L340.198 192.432C339.142 194.32 337.654 195.84 335.734 196.992C333.814 198.112 331.686 198.672 329.35 198.672ZM357.201 179.952H351.777V189.936C351.777 190.768 351.985 191.376 352.401 191.76C352.817 192.144 353.425 192.368 354.225 192.432C355.025 192.464 356.017 192.448 357.201 192.384V198C352.945 198.48 349.937 198.08 348.177 196.8C346.449 195.52 345.585 193.232 345.585 189.936V179.952H341.409V174H345.585V169.152L351.777 167.28V174H357.201V179.952ZM366.763 180.816C366.763 181.456 367.179 181.984 368.011 182.4C368.875 182.784 369.915 183.136 371.131 183.456C372.347 183.744 373.563 184.128 374.779 184.608C375.995 185.056 377.019 185.824 377.851 186.912C378.715 188 379.147 189.36 379.147 190.992C379.147 193.456 378.219 195.36 376.363 196.704C374.539 198.016 372.251 198.672 369.499 198.672C364.571 198.672 361.211 196.768 359.419 192.96L364.795 189.936C365.499 192.016 367.067 193.056 369.499 193.056C371.707 193.056 372.811 192.368 372.811 190.992C372.811 190.352 372.379 189.84 371.515 189.456C370.683 189.04 369.659 188.672 368.443 188.352C367.227 188.032 366.011 187.632 364.795 187.152C363.579 186.672 362.539 185.92 361.675 184.896C360.843 183.84 360.427 182.528 360.427 180.96C360.427 178.592 361.291 176.736 363.019 175.392C364.779 174.016 366.955 173.328 369.547 173.328C371.499 173.328 373.275 173.776 374.875 174.672C376.475 175.536 377.739 176.784 378.667 178.416L373.387 181.296C372.619 179.664 371.339 178.848 369.547 178.848C368.747 178.848 368.075 179.024 367.531 179.376C367.019 179.728 366.763 180.208 366.763 180.816Z" fill="white"/>
<path d="M94.0208 124L87.2528 112.336H82.2128V124H75.5888V90.4H89.0288C92.1328 90.4 94.7728 91.488 96.9488 93.664C99.1248 95.84 100.213 98.464 100.213 101.536C100.213 103.616 99.6208 105.552 98.4368 107.344C97.2528 109.104 95.6848 110.432 93.7328 111.328L101.173 124H94.0208ZM82.2128 96.592V106.528H89.0288C90.2768 106.528 91.3488 106.048 92.2448 105.088C93.1408 104.096 93.5888 102.912 93.5888 101.536C93.5888 100.16 93.1408 98.992 92.2448 98.032C91.3488 97.072 90.2768 96.592 89.0288 96.592H82.2128ZM108.798 114.544C109.63 117.552 111.886 119.056 115.566 119.056C117.934 119.056 119.726 118.256 120.942 116.656L125.934 119.536C123.566 122.96 120.078 124.672 115.47 124.672C111.502 124.672 108.318 123.472 105.918 121.072C103.518 118.672 102.318 115.648 102.318 112C102.318 108.384 103.502 105.376 105.87 102.976C108.238 100.544 111.278 99.328 114.99 99.328C118.51 99.328 121.406 100.544 123.678 102.976C125.982 105.408 127.134 108.416 127.134 112C127.134 112.8 127.054 113.648 126.894 114.544H108.798ZM108.702 109.744H120.942C120.59 108.112 119.854 106.896 118.734 106.096C117.646 105.296 116.398 104.896 114.99 104.896C113.326 104.896 111.95 105.328 110.862 106.192C109.774 107.024 109.054 108.208 108.702 109.744ZM144.801 99.328C147.425 99.328 149.585 100.208 151.281 101.968C153.009 103.728 153.873 106.16 153.873 109.264V124H147.681V110.032C147.681 108.432 147.249 107.216 146.385 106.384C145.521 105.52 144.369 105.088 142.929 105.088C141.329 105.088 140.049 105.584 139.089 106.576C138.129 107.568 137.649 109.056 137.649 111.04V124H131.457V100H137.649V102.688C139.153 100.448 141.537 99.328 144.801 99.328ZM172.888 105.952H167.464V115.936C167.464 116.768 167.672 117.376 168.088 117.76C168.504 118.144 169.112 118.368 169.912 118.432C170.712 118.464 171.704 118.448 172.888 118.384V124C168.632 124.48 165.624 124.08 163.864 122.8C162.136 121.52 161.272 119.232 161.272 115.936V105.952H157.096V100H161.272V95.152L167.464 93.28V100H172.888V105.952ZM220.541 117.664H233.357V124H213.917V90.4H220.541V117.664ZM241.595 114.544C242.427 117.552 244.683 119.056 248.363 119.056C250.731 119.056 252.523 118.256 253.739 116.656L258.731 119.536C256.363 122.96 252.875 124.672 248.267 124.672C244.299 124.672 241.115 123.472 238.715 121.072C236.315 118.672 235.115 115.648 235.115 112C235.115 108.384 236.299 105.376 238.667 102.976C241.035 100.544 244.075 99.328 247.787 99.328C251.307 99.328 254.203 100.544 256.475 102.976C258.779 105.408 259.931 108.416 259.931 112C259.931 112.8 259.851 113.648 259.691 114.544H241.595ZM241.499 109.744H253.739C253.387 108.112 252.651 106.896 251.531 106.096C250.443 105.296 249.195 104.896 247.787 104.896C246.123 104.896 244.747 105.328 243.659 106.192C242.571 107.024 241.851 108.208 241.499 109.744ZM277.598 99.328C280.222 99.328 282.382 100.208 284.078 101.968C285.806 103.728 286.67 106.16 286.67 109.264V124H280.478V110.032C280.478 108.432 280.046 107.216 279.182 106.384C278.318 105.52 277.166 105.088 275.726 105.088C274.126 105.088 272.846 105.584 271.886 106.576C270.926 107.568 270.446 109.056 270.446 111.04V124H264.254V100H270.446V102.688C271.95 100.448 274.334 99.328 277.598 99.328ZM310.149 90.4H316.341V124H310.149V121.168C308.325 123.504 305.733 124.672 302.373 124.672C299.141 124.672 296.373 123.456 294.069 121.024C291.797 118.56 290.661 115.552 290.661 112C290.661 108.448 291.797 105.456 294.069 103.024C296.373 100.56 299.141 99.328 302.373 99.328C305.733 99.328 308.325 100.496 310.149 102.832V90.4ZM298.725 116.896C300.005 118.144 301.605 118.768 303.525 118.768C305.445 118.768 307.029 118.144 308.277 116.896C309.525 115.616 310.149 113.984 310.149 112C310.149 110.016 309.525 108.4 308.277 107.152C307.029 105.872 305.445 105.232 303.525 105.232C301.605 105.232 300.005 105.872 298.725 107.152C297.477 108.4 296.853 110.016 296.853 112C296.853 113.984 297.477 115.616 298.725 116.896ZM369.764 124.672C366.436 124.672 363.636 123.936 361.364 122.464C359.092 120.96 357.492 118.928 356.564 116.368L362.228 113.056C363.54 116.48 366.116 118.192 369.956 118.192C371.812 118.192 373.172 117.856 374.036 117.184C374.9 116.512 375.332 115.664 375.332 114.64C375.332 113.456 374.804 112.544 373.748 111.904C372.692 111.232 370.804 110.512 368.084 109.744C366.58 109.296 365.3 108.848 364.244 108.4C363.22 107.952 362.18 107.36 361.124 106.624C360.1 105.856 359.316 104.896 358.772 103.744C358.228 102.592 357.956 101.248 357.956 99.712C357.956 96.672 359.028 94.256 361.172 92.464C363.348 90.64 365.956 89.728 368.996 89.728C371.716 89.728 374.1 90.4 376.148 91.744C378.228 93.056 379.844 94.896 380.996 97.264L375.428 100.48C374.084 97.6 371.94 96.16 368.996 96.16C367.62 96.16 366.532 96.48 365.732 97.12C364.964 97.728 364.58 98.528 364.58 99.52C364.58 100.576 365.012 101.44 365.876 102.112C366.772 102.752 368.468 103.456 370.964 104.224C371.988 104.544 372.756 104.8 373.268 104.992C373.812 105.152 374.532 105.424 375.428 105.808C376.356 106.16 377.06 106.496 377.54 106.816C378.052 107.136 378.628 107.568 379.268 108.112C379.908 108.656 380.388 109.216 380.708 109.792C381.06 110.368 381.348 111.072 381.572 111.904C381.828 112.704 381.956 113.584 381.956 114.544C381.956 117.648 380.82 120.112 378.548 121.936C376.308 123.76 373.38 124.672 369.764 124.672ZM391.877 114.544C392.709 117.552 394.965 119.056 398.645 119.056C401.013 119.056 402.805 118.256 404.021 116.656L409.013 119.536C406.645 122.96 403.157 124.672 398.549 124.672C394.581 124.672 391.397 123.472 388.997 121.072C386.597 118.672 385.396 115.648 385.396 112C385.396 108.384 386.581 105.376 388.949 102.976C391.317 100.544 394.357 99.328 398.069 99.328C401.589 99.328 404.485 100.544 406.757 102.976C409.061 105.408 410.213 108.416 410.213 112C410.213 112.8 410.133 113.648 409.973 114.544H391.877ZM391.781 109.744H404.021C403.669 108.112 402.933 106.896 401.813 106.096C400.725 105.296 399.477 104.896 398.069 104.896C396.405 104.896 395.029 105.328 393.941 106.192C392.853 107.024 392.133 108.208 391.781 109.744ZM414.535 124V88.96H420.727V124H414.535ZM426.395 124V88.96H432.587V124H426.395ZM527.143 106.576C530.087 108.272 531.559 110.832 531.559 114.256C531.559 117.104 530.551 119.44 528.535 121.264C526.519 123.088 524.039 124 521.095 124H506.839V90.4H520.087C522.967 90.4 525.383 91.296 527.335 93.088C529.319 94.848 530.311 97.104 530.311 99.856C530.311 102.64 529.255 104.88 527.143 106.576ZM520.087 96.592H513.463V103.984H520.087C521.111 103.984 521.959 103.632 522.631 102.928C523.335 102.224 523.687 101.344 523.687 100.288C523.687 99.232 523.351 98.352 522.679 97.648C522.007 96.944 521.143 96.592 520.087 96.592ZM521.095 117.808C522.215 117.808 523.143 117.44 523.879 116.704C524.615 115.936 524.983 114.976 524.983 113.824C524.983 112.704 524.615 111.776 523.879 111.04C523.143 110.272 522.215 109.888 521.095 109.888H513.463V117.808H521.095ZM551.969 100H558.161V124H551.969V121.312C550.465 123.552 548.081 124.672 544.817 124.672C542.193 124.672 540.017 123.792 538.289 122.032C536.593 120.272 535.745 117.84 535.745 114.736V100H541.937V113.968C541.937 115.568 542.369 116.8 543.233 117.664C544.097 118.496 545.249 118.912 546.689 118.912C548.289 118.912 549.569 118.416 550.529 117.424C551.489 116.432 551.969 114.944 551.969 112.96V100ZM579.48 100H586.104L577.368 124C576.12 127.456 574.456 129.952 572.376 131.488C570.328 133.056 567.768 133.76 564.696 133.6V127.84C566.36 127.872 567.672 127.52 568.632 126.784C569.624 126.048 570.408 124.864 570.984 123.232L561.144 100H567.912L574.152 116.128L579.48 100Z" fill="#0B0F18"/>
<defs>
<radialGradient id="paint0_radial" cx="0" cy="0" r="1" gradientUnits="userSpaceOnUse" gradientTransform="translate(128.048 109.103) rotate(87.5558) scale(31.87 60.7644)">
<stop stop-color="#FFB81F"/>
<stop offset="1" stop-color="#FFD715"/>
</radialGradient>
<linearGradient id="paint1_linear" x1="264.997" y1="75.0661" x2="262.26" y2="141.336" gradientUnits="userSpaceOnUse">
<stop stop-color="#FFD715"/>
<stop offset="1" stop-color="#FFB81F"/>
</linearGradient>
<radialGradient id="paint2_radial" cx="0" cy="0" r="1" gradientUnits="userSpaceOnUse" gradientTransform="translate(392.75 105.75) rotate(-148.707) scale(44.7619 74.6421)">
<stop stop-color="#FFB81F"/>
<stop offset="1" stop-color="#FFD715"/>
</radialGradient>
<linearGradient id="paint3_linear" x1="505.028" y1="144.599" x2="579.803" y2="88.9188" gradientUnits="userSpaceOnUse">
<stop stop-color="#FFD715"/>
<stop offset="1" stop-color="#FFB81F"/>
</linearGradient>
</defs>
</svg>
