<svg width="146" height="30" viewBox="0 0 146 30" fill="none" xmlns="http://www.w3.org/2000/svg">
<g clip-path="url(#clip0)">
<path d="M38.5371 22.9802H34.7487V20.8359C33.4448 22.3899 30.897 23.5371 28.7227 23.5371C24.2807 23.5371 20.339 19.9955 20.339 14.253C20.339 8.97398 24.1907 5.15228 28.9728 5.15228C32.4811 5.15228 34.562 7.66673 34.6887 7.91685H34.7521V5.74255H38.5404V22.9802H38.5371ZM29.5964 8.94397C26.2116 8.94397 24.4708 11.8619 24.4708 14.4397C24.4708 17.3577 26.6451 19.7488 29.5964 19.7488C32.4544 19.7488 34.6287 17.5111 34.6287 14.313C34.6253 10.7448 32.0475 8.94397 29.5964 8.94397Z" fill="white"/>
<path d="M41.6751 5.7459H45.4635V7.20655H45.5268C45.867 6.6463 47.0475 5.15564 50.0288 5.15564C50.9593 5.15564 53.3837 5.3724 54.9977 7.85684C56.7985 5.27903 59.3463 5.15564 60.5568 5.15564C63.9417 5.15564 65.6191 6.95644 66.2394 7.82683C66.923 8.72723 67.5433 10.3746 67.5433 12.9191V22.9802H63.4114V13.416C63.4114 12.4222 63.4114 8.94399 60.15 8.94399C58.9995 8.94399 57.8823 9.56427 57.2921 10.558C56.7018 11.4885 56.6718 13.0125 56.6718 14.0663V22.9802H52.54V13.416C52.54 11.0549 51.6396 8.94399 49.0918 8.94399C45.8003 8.94399 45.8003 12.5456 45.8003 14.3797V22.9802H41.6685V5.7459H41.6751Z" fill="white"/>
<path d="M74.4964 16.2106C74.6832 17.3277 76.2972 19.7521 79.2485 19.7521C81.0827 19.7521 82.4466 18.9751 83.2236 17.5478H87.5722C86.5785 20.6525 83.317 23.5405 79.2485 23.5405C73.9995 23.5405 70.1478 19.442 70.1478 14.4098C70.1478 9.53425 73.7494 5.15564 79.2152 5.15564C84.8677 5.15564 88.1292 9.78436 88.1292 14.1296C88.1292 14.9367 88.0058 15.6503 87.879 16.2106H74.4964ZM83.9073 12.8891C83.4404 10.1245 81.4529 8.94399 79.2485 8.94399C77.5711 8.94399 75.1501 9.68765 74.373 12.8891H83.9073Z" fill="white"/>
<path d="M90.7402 0H94.8721V6.95643C95.399 6.45954 96.7663 5.15563 99.3441 5.15563C101.268 5.15563 103.413 6.21276 104.653 7.7968C106.02 9.53424 106.02 11.9887 106.02 13.2626V22.9835H101.889V14.1596C101.889 12.2955 101.765 8.94398 98.347 8.94398C94.8687 8.94398 94.8687 12.7623 94.8687 14.223V22.9802H90.7402V0Z" fill="#FFD715"/>
<path d="M124.589 5.74588V22.9802H120.8V21.2428H120.737C120.053 22.1732 118.936 23.5405 116.295 23.5405C113.157 23.5405 111.389 21.9864 110.519 20.8092C109.245 18.9784 109.245 16.1805 109.245 14.7532V5.74588H113.377V14.5331C113.377 15.9304 113.377 19.7521 116.979 19.7521C119.586 19.7521 120.457 17.2977 120.457 14.5665V5.74588H124.589Z" fill="#FFD715"/>
<path d="M137.288 5.15562C135.363 5.15562 133.343 5.86928 131.915 7.29991V0H127.783V22.9802H131.572V20.8993C132.596 22.0498 134.056 23.5405 137.378 23.5405C143.681 23.5405 145.948 17.7345 145.948 14.2863C145.955 9.72099 142.537 5.15562 137.288 5.15562ZM136.764 10.0445C137.578 10.0445 138.238 10.7048 138.238 11.5185C138.238 12.3321 137.578 12.9924 136.764 12.9924C135.95 12.9924 135.29 12.3321 135.29 11.5185C135.29 10.7014 135.95 10.0445 136.764 10.0445ZM133.819 15.9337C133.006 15.9337 132.345 15.2735 132.345 14.4598C132.345 13.6461 133.006 12.9858 133.819 12.9858C134.633 12.9858 135.293 13.6461 135.293 14.4598C135.29 15.2768 134.633 15.9337 133.819 15.9337ZM136.764 18.8817C135.95 18.8817 135.29 18.2214 135.29 17.4077C135.29 16.594 135.95 15.9337 136.764 15.9337C137.578 15.9337 138.238 16.594 138.238 17.4077C138.238 18.2214 137.578 18.8817 136.764 18.8817ZM139.709 15.9337C138.895 15.9337 138.235 15.2735 138.235 14.4598C138.235 13.6461 138.895 12.9858 139.709 12.9858C140.522 12.9858 141.183 13.6461 141.183 14.4598C141.183 15.2768 140.522 15.9337 139.709 15.9337Z" fill="#FFD715"/>
<path d="M14.3464 5.7459V7.85684H14.283C13.8161 7.1732 12.3255 5.15564 8.78724 5.15564C4.40863 5.15564 0 8.78725 0 14.193C0 19.9689 4.62872 23.5405 8.82059 23.5405C12.3288 23.5405 13.9129 21.5529 14.4731 20.7759L14.5365 20.8393C14.3164 24.5943 11.5851 26.2117 9.25411 26.2117C8.60049 26.2117 6.61294 26.2117 4.99889 24.2875H0.280125C1.77079 28.1359 5.4024 30 8.94398 30C12.2054 30 18.3548 28.1058 18.3548 19.8155V5.7459H14.3464ZM12.0887 15.8204H10.6147V17.2944C10.6147 18.1081 9.95442 18.7684 9.14073 18.7684C8.32703 18.7684 7.67008 18.1081 7.67008 17.2944V15.8204H6.19609C5.38239 15.8204 4.7221 15.1601 4.7221 14.3464C4.7221 13.5327 5.38239 12.8724 6.19609 12.8724H7.67008V11.3984C7.67008 10.5847 8.33037 9.92443 9.14406 9.92443C9.95776 9.92443 10.6181 10.5847 10.6181 11.3984V12.8724H12.092C12.9057 12.8724 13.566 13.5327 13.566 14.3464C13.566 15.1601 12.9024 15.8204 12.0887 15.8204Z" fill="white"/>
</g>
<defs>
<clipPath id="clip0">
<rect width="145.955" height="30" fill="white"/>
</clipPath>
</defs>
</svg>
